<svg width="658" height="105" viewBox="0 0 658 105" fill="none" xmlns="http://www.w3.org/2000/svg">
<path fill-rule="evenodd" clip-rule="evenodd" d="M421.902 3.10001C437.781 3.10001 449.93 3.15861 450.32 3.25629C450.691 3.35396 451.707 3.58838 452.566 3.7642C453.426 3.95955 454.793 4.35025 455.594 4.64328C456.395 4.9363 457.547 5.42468 458.133 5.7177C458.719 6.01073 459.949 6.75306 460.867 7.33912C461.824 7.96424 463.387 9.29262 464.598 10.4843C465.789 11.6954 467.117 13.2582 467.742 14.2155C468.328 15.1336 469.07 16.3643 469.363 16.9504C469.656 17.5364 470.145 18.689 470.437 19.4899C470.73 20.2909 471.102 21.5802 471.277 22.3225C471.434 23.0648 471.668 24.1588 471.785 24.7058C471.941 25.4286 472 34.024 472 52.934C472 76.337 471.961 80.3807 471.707 81.8068C471.531 82.7249 471.277 83.9556 471.121 84.5417C470.965 85.1277 470.613 86.2217 470.32 86.9836C470.047 87.7454 469.598 88.7808 469.324 89.3278C469.051 89.8552 468.328 91.0469 467.742 91.965C467.117 92.9222 465.789 94.485 464.598 95.6962C463.387 96.8879 461.824 98.2162 460.867 98.8414C459.949 99.4274 458.719 100.17 458.133 100.463C457.547 100.756 456.395 101.244 455.594 101.537C454.793 101.83 453.426 102.221 452.566 102.416C451.707 102.592 450.691 102.827 450.32 102.924C449.93 103.022 437.781 103.1 422 103.1C406.219 103.1 394.07 103.022 393.68 102.924C393.309 102.827 392.293 102.592 391.434 102.416C390.574 102.221 389.207 101.83 388.406 101.537C387.605 101.244 386.453 100.756 385.867 100.463C385.281 100.17 384.051 99.4274 383.133 98.8414C382.176 98.2162 380.613 96.8879 379.402 95.6962C378.211 94.485 376.883 92.9222 376.258 91.965C375.672 91.0469 374.93 89.8162 374.637 89.2301C374.344 88.6441 373.855 87.4915 373.562 86.6906C373.27 85.8896 372.898 84.6198 372.723 83.858C372.566 83.0961 372.332 82.0217 372.215 81.4552C372.059 80.7519 372 72.1565 372 53.227C372 29.8435 372.039 25.7998 372.293 24.3737C372.469 23.4555 372.723 22.2248 372.879 21.6388C373.035 21.0527 373.387 19.9392 373.68 19.1969C373.953 18.435 374.402 17.3801 374.676 16.8527C374.949 16.3057 375.672 15.1336 376.258 14.2155C376.883 13.2582 378.211 11.6954 379.402 10.4843C380.613 9.29262 382.176 7.96424 383.133 7.33912C384.051 6.75306 385.32 5.9912 385.965 5.67863C386.609 5.34654 387.918 4.81909 388.895 4.487C389.871 4.1549 391.219 3.78373 391.922 3.64699C392.625 3.52978 393.406 3.35396 393.68 3.25629C393.953 3.17815 406.648 3.10001 421.902 3.10001ZM391.531 12.3792C390.613 12.6917 389.168 13.395 388.309 13.9224C387.449 14.4694 386.18 15.4266 385.496 16.0713C384.812 16.7159 383.797 17.9467 383.23 18.8062C382.664 19.6657 381.98 20.8965 381.707 21.5411C381.453 22.1858 381.063 23.2407 380.867 23.8853C380.516 24.9988 380.496 26.2686 380.496 53.0902C380.496 79.9119 380.516 81.1817 380.867 82.2952C381.063 82.9398 381.453 83.9947 381.707 84.6394C381.98 85.284 382.664 86.5147 383.23 87.3743C383.797 88.2338 384.812 89.4645 385.496 90.1092C386.18 90.7538 387.488 91.7501 388.406 92.3166C389.402 92.9222 390.848 93.5864 392.02 93.9576L393.973 94.6023L450.027 94.6023C452.293 93.8795 453.406 93.4888 453.934 93.2543C454.48 93.0199 455.477 92.4339 456.18 91.965C456.883 91.4962 457.957 90.6171 458.602 90.0311C459.227 89.4255 460.203 88.2338 460.77 87.3743C461.336 86.5147 462.02 85.284 462.293 84.6394C462.547 83.9947 462.938 82.9398 463.133 82.2952C463.484 81.1817 463.504 79.9119 463.504 53.0902L463.504 25.0574C462.488 21.9318 461.824 20.4862 461.219 19.4899C460.652 18.5718 459.695 17.302 459.09 16.6573C458.484 16.0127 457.352 15.0359 456.551 14.489C455.75 13.942 454.793 13.3364 454.422 13.141C454.051 12.9457 452.938 12.5159 451.98 12.1838L450.223 11.5782C407.391 11.5392 394.559 11.5978 394.07 11.6759C393.582 11.754 392.449 12.0861 391.531 12.3792ZM449.734 19.822C450.223 19.8806 451.141 20.1541 451.785 20.4667C452.43 20.7597 453.25 21.3458 453.621 21.7755C453.992 22.1858 454.52 23.0062 454.773 23.5923C455.125 24.3542 455.262 24.9988 455.262 25.8388C455.262 26.4835 455.164 27.3626 455.047 27.7923C454.93 28.2221 454.578 28.9644 454.246 29.4528C453.934 29.9412 453.211 30.6444 452.645 31.0547C452.059 31.4454 451.238 31.8752 450.809 31.9924C450.34 32.1486 449.461 32.2073 448.66 32.1486C447.781 32.09 446.98 31.8947 446.414 31.6212C445.926 31.3672 445.203 30.8398 444.793 30.4491C444.383 30.0584 443.797 29.2965 443.523 28.7691C443.074 27.9291 442.996 27.5579 442.996 26.0342C442.996 24.6276 443.074 24.1002 443.426 23.3969C443.66 22.9086 444.207 22.1467 444.637 21.6779C445.086 21.2285 445.73 20.7011 446.063 20.5253C446.414 20.3495 447.195 20.0955 447.781 19.9588C448.367 19.8416 449.246 19.7634 449.734 19.822ZM422.684 28.183C424.07 28.2221 425.926 28.3979 426.785 28.5737C427.645 28.7495 429.148 29.1598 430.105 29.4723C431.063 29.8044 432.566 30.4296 433.426 30.8789C434.285 31.3282 435.691 32.2073 436.551 32.8128C437.41 33.438 438.797 34.6296 439.637 35.4501C440.477 36.2901 441.629 37.638 442.215 38.4389C442.781 39.2399 443.66 40.6464 444.148 41.5646C444.637 42.4827 445.281 44.0064 445.613 44.9832C445.926 45.9404 446.355 47.4837 446.551 48.4018C446.785 49.5935 446.883 50.9218 446.883 53.0902C446.883 55.2586 446.785 56.587 446.551 57.7787C446.355 58.6968 445.926 60.2205 445.613 61.1973C445.281 62.1545 444.637 63.6978 444.148 64.6159C443.66 65.5341 442.762 66.9601 442.156 67.8197C441.551 68.6597 440.242 70.1053 439.285 71.043C438.328 71.9806 436.785 73.2309 435.867 73.8365C434.949 74.4421 433.66 75.2039 432.977 75.536C432.313 75.8681 431.004 76.3956 430.047 76.7081C429.109 77.0207 427.605 77.4505 426.687 77.6458C425.496 77.8802 424.168 77.9779 422 77.9779C419.832 77.9779 418.504 77.8802 417.312 77.6458C416.395 77.4505 414.891 77.0207 413.934 76.7081C412.996 76.3956 411.687 75.8681 411.004 75.536C410.34 75.2039 409.051 74.4421 408.133 73.8365C407.215 73.2309 405.672 71.9806 404.715 71.043C403.758 70.1053 402.449 68.6597 401.844 67.8197C401.238 66.9601 400.34 65.5341 399.852 64.6159C399.363 63.6978 398.719 62.1545 398.387 61.1973C398.074 60.2205 397.645 58.6968 397.449 57.7787C397.215 56.587 397.117 55.2586 397.117 53.0902C397.117 50.9218 397.215 49.5935 397.449 48.4018C397.645 47.4837 398.074 45.9404 398.387 44.9832C398.719 44.0064 399.344 42.5218 399.793 41.6622C400.242 40.8027 401.121 39.3962 401.727 38.5366C402.352 37.6771 403.484 36.3292 404.266 35.5477C405.047 34.7468 406.297 33.6528 407.059 33.1059C407.801 32.5393 409.07 31.7189 409.891 31.25C410.691 30.8007 412.02 30.1756 412.82 29.863C413.621 29.5505 414.988 29.1012 415.848 28.8863C416.707 28.6714 418.035 28.3979 418.777 28.3002C419.52 28.2026 421.277 28.144 422.684 28.183ZM417.449 37.1106C416.668 37.3254 415.594 37.6966 415.066 37.931C414.52 38.1654 413.523 38.7515 412.82 39.2203C412.117 39.6892 411.043 40.5683 410.418 41.1543C409.793 41.7599 408.855 42.8539 408.328 43.6157C407.801 44.3581 407.176 45.4716 406.902 46.0576C406.629 46.6437 406.219 47.7962 405.965 48.5972C405.574 49.867 405.496 50.453 405.496 53.0902C405.496 55.7275 405.574 56.3135 405.965 57.5833C406.219 58.3842 406.629 59.5368 406.902 60.1229C407.176 60.7089 407.801 61.8029 408.328 62.5647C408.855 63.3071 409.793 64.4206 410.418 65.0262C411.043 65.6122 412.117 66.4913 412.82 66.9601C413.523 67.429 414.52 68.015 415.066 68.2495C415.594 68.4839 416.707 68.8746 417.508 69.1285C418.777 69.5192 419.363 69.5974 422 69.5974C424.637 69.5974 425.223 69.5192 426.492 69.1285C427.293 68.8746 428.387 68.4839 428.934 68.2495C429.461 68.015 430.477 67.429 431.18 66.9601C431.883 66.4913 432.957 65.6122 433.582 65.0262C434.207 64.4206 435.145 63.3071 435.672 62.5647C436.199 61.8029 436.824 60.7089 437.098 60.1229C437.371 59.5368 437.781 58.3842 438.035 57.5833C438.426 56.3135 438.504 55.7275 438.504 53.0902C438.504 50.453 438.426 49.867 438.035 48.5972C437.781 47.7962 437.371 46.6437 437.098 46.0576C436.824 45.4716 436.199 44.3581 435.672 43.6157C435.145 42.8539 434.207 41.7599 433.582 41.1543C432.957 40.5683 431.922 39.7283 431.277 39.2789C430.633 38.8492 429.793 38.3413 429.422 38.1459C429.051 37.9506 427.938 37.5403 426.98 37.2278C425.457 36.7199 424.891 36.6417 422.586 36.5831C421.141 36.544 419.695 36.5636 419.402 36.6222C419.09 36.6808 418.211 36.8957 417.449 37.1106Z" fill="white"/>
<path d="M45.8097 1.38629C44.1881 1.56925 41.961 1.93518 40.8279 2.17913C39.6948 2.42308 37.7216 2.95165 36.4322 3.3379C35.1428 3.74449 33.1305 4.47635 31.9388 4.96425C30.7471 5.47248 28.7739 6.42796 27.5431 7.11916C26.3123 7.79003 24.4564 8.90814 23.4405 9.57901C22.4246 10.2702 20.5296 11.7136 19.2402 12.791C17.9508 13.8685 15.919 15.7998 14.7468 17.0805C13.5746 18.3613 11.9335 20.3129 11.113 21.431C10.2925 22.5288 9.10077 24.3178 8.45607 25.3749C7.81137 26.432 6.7564 28.404 6.1117 29.7457C5.467 31.0874 4.52925 33.283 4.04084 34.6247C3.55243 35.9665 2.84912 38.3857 2.45839 40.012C2.0872 41.6384 1.61833 43.9153 1.4425 45.0944C1.26667 46.2735 1.09085 49.0586 1.03224 51.2948C0.95409 54.4662 1.0127 55.9299 1.26667 57.9018C1.4425 59.3046 1.81369 61.5408 2.0872 62.8825C2.36071 64.2243 2.9468 66.5215 3.39614 67.9649C3.86501 69.4082 4.72462 71.7055 5.29117 73.0472C5.87726 74.3889 6.95177 76.5438 7.69415 77.8246C8.43653 79.1053 9.47196 80.7927 10.019 81.5855C10.5465 82.3784 11.621 83.7811 12.3829 84.7366C13.1448 85.692 14.4733 87.1964 15.3329 88.0909C16.1925 88.9854 17.6577 90.3678 18.5564 91.1606C19.4746 91.9535 20.8421 93.0716 21.5845 93.6205C22.3269 94.1694 23.8703 95.2062 25.0034 95.9177C26.1365 96.6292 27.9339 97.6457 29.0084 98.1743C30.0829 98.7231 32.017 99.577 33.3064 100.085C34.5958 100.593 35.8656 101 36.1391 101C36.4127 101 36.9206 100.817 37.2723 100.593C37.6044 100.37 38.0537 99.9429 38.2295 99.638C38.5226 99.1297 38.5617 98.5199 38.5031 94.393C38.4835 91.8315 38.4444 89.6969 38.4249 89.6969C38.4054 89.6766 37.5848 89.7986 36.6276 89.9612C35.5335 90.1442 34.1074 90.2052 32.818 90.1442C31.6848 90.1035 30.2392 89.9002 29.5945 89.7172C28.9498 89.5546 27.758 89.0667 26.957 88.6805C25.863 88.1316 25.1402 87.5827 24.1047 86.5052C22.913 85.2245 22.5418 84.6552 21.3306 82.0937C20.5686 80.4674 19.5527 78.6174 19.0643 77.9872C18.5759 77.3367 17.5796 76.3812 16.8567 75.8526C16.1339 75.3037 15.2547 74.5719 14.9031 74.2263C14.4928 73.7994 14.2779 73.3928 14.2975 73.1082C14.3365 72.7626 14.571 72.5593 15.1375 72.356C15.7627 72.1527 16.1925 72.1324 17.1888 72.3153C17.8922 72.4373 18.9862 72.8032 19.6309 73.1082C20.2756 73.4334 21.3306 74.1856 21.9557 74.7955C22.5809 75.4054 23.5577 76.5845 24.0852 77.418C24.6322 78.2515 25.4723 79.3899 25.9607 79.9185C26.4686 80.4674 27.2501 81.1789 27.7385 81.4839C28.2269 81.8091 29.0084 82.2157 29.4968 82.3987C29.9852 82.5817 30.962 82.8053 31.7044 82.9069C32.5835 83.0492 33.5017 83.0289 34.5176 82.8866C35.3577 82.7646 36.5885 82.48 37.2527 82.2767C38.1514 81.9921 38.5421 81.7685 38.6593 81.4229C38.757 81.1789 38.9719 80.3861 39.1478 79.6542C39.3236 78.9224 39.7729 77.7839 40.1636 77.1131C40.5348 76.4422 41.0623 75.6697 41.3163 75.3851L41.7852 74.8768C39.9097 74.6126 38.3077 74.3076 37.0183 74.023C35.7289 73.7384 33.9315 73.2302 33.0133 72.9049C32.0951 72.5593 30.8252 72.0104 30.1805 71.6851C29.5358 71.3395 28.52 70.7297 27.9339 70.3231C27.3478 69.9165 26.1756 68.9 25.316 68.0665C24.4759 67.233 23.4014 65.9523 22.9521 65.2204C22.4832 64.4885 21.7994 63.2078 21.4087 62.3743C21.0375 61.5408 20.51 60.0771 20.2561 59.1216C19.9825 58.1661 19.6114 56.2958 19.4355 54.9541C19.1816 53.1244 19.1229 51.6607 19.2011 49.1602C19.2792 46.2938 19.3769 45.5416 19.8067 43.9762C20.0998 42.9801 20.6663 41.4554 21.057 40.6219C21.4478 39.7884 22.3269 38.345 22.9912 37.4099C23.9484 36.1291 24.1829 35.6615 24.0461 35.3769C23.9484 35.194 23.7335 34.3605 23.5577 33.5473C23.3819 32.7341 23.2451 31.1891 23.2451 30.0506C23.2451 28.9325 23.3819 27.3062 23.5382 26.432C23.6945 25.5782 24.007 24.3178 24.2219 23.6469C24.5345 22.6304 24.6908 22.4068 25.1402 22.2848C25.4527 22.2035 26.3123 22.2442 27.0547 22.3458C27.7971 22.4475 29.1842 22.8134 30.1219 23.1387C31.0792 23.4843 32.6617 24.1755 33.6385 24.6837C34.6348 25.2123 36.1391 26.0864 36.9597 26.615C38.3468 27.5298 38.5421 27.5908 39.1087 27.4078C39.4603 27.2859 40.8865 26.9809 42.2931 26.6963C43.6997 26.432 46.2004 26.1068 47.861 25.9848C50.1272 25.8018 51.651 25.8018 53.9173 25.9848C55.5779 26.1068 57.9027 26.3914 59.0944 26.5947C60.2861 26.8183 61.7318 27.1232 62.3179 27.2859L63.3924 27.5908C66.108 25.8221 67.7881 24.8667 68.8626 24.3381C69.9371 23.8095 71.4219 23.1793 72.1838 22.9557C72.9457 22.7118 74.1179 22.4272 74.8212 22.3255C75.5245 22.2239 76.3451 22.2035 76.6381 22.2848C77.1265 22.4068 77.2437 22.6101 77.654 23.9519C77.8884 24.7854 78.2206 26.2084 78.3378 27.1029C78.4941 28.1194 78.5527 29.6237 78.4745 31.0671C78.4159 32.4902 78.2401 33.8726 78.0057 34.6247L77.6345 35.8445C79.0215 37.6132 79.7444 38.7109 80.1547 39.4225C80.5454 40.134 81.1315 41.4147 81.4441 42.2483C81.7566 43.0818 82.1669 44.5048 82.3427 45.3993C82.5576 46.4971 82.6553 48.0015 82.6553 50.075C82.6553 51.7421 82.5186 54.0799 82.3623 55.259C82.1864 56.4381 81.8348 58.1255 81.5808 59.02C81.3268 59.9144 80.9166 61.1545 80.6626 61.7644C80.4282 62.3743 79.8616 63.4924 79.4318 64.2446C78.9825 65.0171 78.2401 66.1352 77.7517 66.7654C77.2633 67.3956 76.2083 68.4731 75.3878 69.1643C74.5672 69.8352 73.102 70.8313 72.1643 71.3599C71.207 71.8884 69.5855 72.5999 68.5696 72.9455C67.5537 73.3115 65.6977 73.7994 64.4669 74.0637C63.2361 74.3279 61.7123 74.5922 61.0871 74.6532L59.9736 74.7752C61.0285 76.0356 61.5951 76.9301 61.9077 77.5603C62.2202 78.2108 62.6305 79.2883 62.8259 79.9592C63.1189 81.0163 63.1775 82.3987 63.2752 90.2255C63.3534 96.8935 63.451 99.394 63.6269 99.7396C63.7636 99.9836 64.1543 100.329 64.4669 100.492C64.7795 100.654 65.3851 100.797 65.7759 100.797C66.1861 100.797 67.3974 100.471 68.4719 100.065C69.5464 99.6583 71.7345 98.6622 73.356 97.849C74.958 97.0155 77.3414 95.6331 78.6308 94.7589C79.9202 93.8644 81.8543 92.4007 82.9288 91.5062C84.0033 90.6117 85.8984 88.7821 87.1292 87.4607C88.3795 86.119 89.9815 84.269 90.6848 83.3135C91.3881 82.358 92.6384 80.4877 93.4785 79.146C94.299 77.8043 95.4321 75.7103 95.9987 74.4702C96.5848 73.2302 97.3662 71.3802 97.757 70.3434C98.1477 69.3269 98.6752 67.6803 98.9487 66.6841C99.2222 65.7083 99.6325 64.082 99.8474 63.0858C100.062 62.0897 100.414 59.9754 100.629 58.4101C100.883 56.5194 101 54.4255 101 52.1486C101 49.8311 100.883 47.8388 100.609 45.8465C100.394 44.2609 99.906 41.6384 99.5152 40.012C99.1245 38.3857 98.4212 35.9665 97.9328 34.6247C97.4444 33.283 96.5652 31.1891 95.9596 29.949C95.3735 28.7089 94.4162 26.8793 93.8301 25.8831C93.2245 24.8667 92.0328 23.037 91.1341 21.8173C90.255 20.5975 88.5748 18.5442 87.4027 17.2635C86.2305 15.9828 84.4331 14.2141 83.4172 13.3399C82.4013 12.4454 80.4672 10.9614 79.1192 10.0263C77.7712 9.09111 75.6613 7.7697 74.4305 7.09883C73.1997 6.42796 71.2265 5.47248 70.0348 4.98458C68.8431 4.47635 67.0067 3.78515 65.9322 3.43955C64.8577 3.09395 62.9236 2.58572 61.6342 2.30111C60.3447 1.99617 57.805 1.58958 55.9686 1.38629C54.1322 1.16267 51.7683 1.00003 50.6938 1.00003C49.6193 1.02036 47.4117 1.18299 45.8097 1.38629Z" fill="white"/>
<path fill-rule="evenodd" clip-rule="evenodd" d="M194.105 2.03906L277.699 2L278.871 2.44922C279.516 2.68359 280.434 3.09375 280.922 3.34766C281.41 3.60156 282.328 4.34375 282.992 5.00781C283.637 5.67187 284.398 6.64844 284.711 7.17578C285.004 7.72266 285.414 8.71875 285.629 9.42188C286 10.6719 286 11.4531 286 51.9023C286 88.5625 285.961 93.25 285.707 94.2852C285.531 94.9297 285.16 95.9453 284.867 96.5313C284.574 97.1172 283.773 98.1719 283.07 98.8945C282.367 99.5977 281.41 100.398 280.922 100.652C280.434 100.906 279.516 101.316 277.699 102L194.301 102L193.129 101.551C192.484 101.316 191.566 100.906 191.078 100.652C190.59 100.398 189.672 99.6563 189.008 98.9922C188.363 98.3281 187.602 97.3711 187.289 96.8242C186.996 96.2773 186.586 95.2812 186.371 94.5781C186 93.3281 186 92.5469 186 52.0977C186 15.4375 186.039 10.75 186.293 9.71484C186.469 9.07031 186.84 8.05469 187.133 7.46875C187.426 6.88281 188.227 5.82812 188.93 5.10547C189.633 4.40234 190.59 3.60156 191.078 3.34766C191.566 3.09375 192.445 2.70313 193.031 2.46875L194.105 2.03906ZM204.613 16.4336C203.93 16.7656 202.895 17.4883 202.289 18.0547C201.566 18.7383 200.98 19.5391 200.531 20.457C200.16 21.1992 199.77 22.3906 199.652 23.0938C199.535 23.7773 199.516 24.793 199.574 25.3398C199.652 25.8672 199.848 26.7461 200.023 27.293C200.18 27.8203 200.531 28.6211 200.766 29.0508C201 29.4805 201.566 30.2031 201.996 30.6523C202.445 31.1016 203.207 31.7461 203.734 32.0781C204.242 32.4102 205.219 32.8398 205.922 33.0547C206.645 33.2891 207.738 33.4453 208.461 33.4453C209.164 33.4258 210.219 33.3086 210.805 33.1523C211.391 32.9961 212.328 32.625 212.855 32.332C213.402 32.0391 214.281 31.3555 214.809 30.8086C215.355 30.2617 216.039 29.3828 216.332 28.8555C216.645 28.3086 216.996 27.3906 217.152 26.8047C217.309 26.1992 217.445 25.1445 217.445 24.4609C217.445 23.7188 217.289 22.6445 217.074 21.9219C216.859 21.2188 216.41 20.2227 216.078 19.7148C215.766 19.207 215.121 18.4258 214.672 17.9961C214.203 17.5469 213.48 17 213.051 16.7656C212.621 16.5117 211.84 16.1797 211.293 16.0039C210.766 15.8281 209.75 15.6328 209.047 15.5742C208.344 15.5352 207.348 15.5742 206.801 15.6719C206.273 15.7695 205.277 16.1211 204.613 16.4336ZM248.598 42.0586C247.953 42.3125 246.82 42.8789 246.059 43.2891C245.16 43.7969 244.086 44.6758 242.895 45.8672L241.078 47.7031L241.078 42.0391L226.039 42.0391L226.039 86.9609L241.078 86.9609C241.078 60.7305 241.098 59.207 241.41 58.3477C241.586 57.8008 241.937 57.0391 242.191 56.6289C242.426 56.2188 243.012 55.5352 243.48 55.1055C243.93 54.6562 244.75 54.0898 245.277 53.8359C245.824 53.582 246.742 53.2695 247.328 53.1523C248.09 53.0156 248.754 53.0156 249.574 53.1523C250.219 53.2695 251.195 53.582 251.723 53.8359C252.27 54.0898 253.07 54.6562 253.539 55.1055C253.988 55.5352 254.574 56.2188 254.809 56.6289C255.062 57.0391 255.414 57.8008 255.59 58.3477C255.902 59.207 255.922 60.7305 255.922 73.1328L255.922 86.9609L270.961 86.9609C270.844 56.8047 270.805 55.3008 270.492 54.2461C270.316 53.6016 269.73 52.1953 269.223 51.1211C268.695 50.0469 267.738 48.4844 267.074 47.6445C266.43 46.8047 265.16 45.5547 264.281 44.8516C263.383 44.1484 261.957 43.25 261.098 42.8203C260.238 42.4102 258.871 41.8633 258.07 41.6289C257.016 41.3359 255.922 41.1992 254.164 41.1406C252.562 41.1016 251.391 41.1602 250.746 41.3164C250.219 41.4727 249.242 41.7852 248.598 42.0586ZM201.039 86.9609L216.078 86.9609L216.078 42.0391L201.039 42.0391L201.039 86.9609Z" fill="white"/>
<path fill-rule="evenodd" clip-rule="evenodd" d="M606.707 6.94922C607.352 6.92969 609.246 7.06641 610.906 7.22266C612.566 7.37891 614.852 7.69141 615.984 7.90625C617.117 8.1211 618.992 8.57032 620.184 8.90235C621.375 9.23438 623.211 9.85938 624.285 10.2891C625.359 10.7188 627.254 11.5781 628.484 12.2031C629.715 12.8477 631.648 13.9609 632.781 14.7227C633.914 15.4648 635.574 16.6758 636.492 17.418C637.391 18.1406 638.934 19.5273 639.91 20.5039C640.887 21.4805 642.313 23.0039 643.074 23.9219C643.836 24.8398 645.145 26.5977 645.965 27.8281C646.785 29.0586 648.094 31.3438 648.875 32.9063C649.637 34.4688 650.613 36.6563 651.004 37.7891C651.414 38.9219 652 40.8555 652.312 42.0859C652.625 43.3164 653.035 45.2891 653.23 46.4805C653.504 48.1797 653.582 49.6836 653.582 53.707C653.562 57.6133 653.484 59.2344 653.23 60.7383C653.035 61.8125 652.586 63.8633 652.215 65.2891C651.844 66.6953 651.199 68.7656 650.789 69.8594C650.359 70.9727 649.422 73.0625 648.68 74.5078C647.957 75.9531 646.824 77.9453 646.18 78.9023C645.555 79.8594 644.461 81.4023 643.738 82.3203C643.035 83.2383 641.355 85.0742 640.008 86.4219C638.66 87.7695 636.551 89.625 635.32 90.543C634.09 91.4805 632.156 92.7891 631.023 93.4531C629.891 94.1367 628.094 95.0938 627.02 95.6016C625.945 96.1094 623.914 96.9102 622.527 97.3984C621.141 97.8867 619.031 98.5117 617.84 98.7852C616.648 99.0586 614.637 99.4492 613.348 99.625C611.844 99.8398 609.695 99.957 607.391 99.957C605.066 99.957 602.898 99.8398 601.336 99.625C599.988 99.4492 597.977 99.0781 596.844 98.8047C595.711 98.5508 593.836 98.0039 592.645 97.6133C591.453 97.2227 589.441 96.4219 588.152 95.8555C586.863 95.2695 585.594 94.7031 585.32 94.6055C584.93 94.4492 582.488 95.0352 573.016 97.5547C566.512 99.2734 561.043 100.719 560.848 100.777C560.672 100.836 560.516 100.816 560.516 100.719C560.516 100.641 561.98 95.2305 567.02 76.7539L565.926 74.6055C565.32 73.4141 564.461 71.5391 564.012 70.4063C563.582 69.2734 562.918 67.3008 562.566 66.0117C562.215 64.7227 561.727 62.5742 561.492 61.2266C561.199 59.5469 561.023 57.6133 560.965 54.9766C560.887 52.6328 560.945 50.3086 561.082 48.9219C561.219 47.6914 561.531 45.582 561.805 44.2344C562.078 42.8867 562.723 40.5234 563.23 38.9609C563.738 37.3984 564.793 34.8594 565.535 33.2969C566.297 31.7344 567.684 29.332 568.621 27.9258C569.559 26.5195 570.906 24.6836 571.648 23.8242C572.371 22.9648 573.66 21.5586 574.5 20.7188C575.359 19.8789 576.785 18.5508 577.703 17.7891C578.621 17.0273 580.379 15.7188 581.609 14.8984C582.84 14.0781 584.695 12.9648 585.711 12.4375C586.727 11.8906 588.523 11.0508 589.715 10.582C590.906 10.0938 592.742 9.42969 593.816 9.09766C594.891 8.76563 596.648 8.31641 597.723 8.08204C598.797 7.84766 601.004 7.51563 602.605 7.32032C604.227 7.125 606.063 6.96875 606.707 6.94922ZM599.578 15.7188C598.445 15.9531 596.512 16.4805 595.281 16.8906C594.051 17.2813 592.156 18.043 591.082 18.5313C590.008 19.0391 588.387 19.8984 587.469 20.4453C586.551 20.9922 584.969 22.0664 583.953 22.8281C582.938 23.5898 581.18 25.1328 580.047 26.2656C578.914 27.3984 577.371 29.1563 576.609 30.1719C575.848 31.1875 574.832 32.6914 574.324 33.4922C573.836 34.293 572.996 35.875 572.449 37.0078C571.922 38.1406 571.18 39.9375 570.809 41.0117C570.437 42.0859 569.91 43.9805 569.637 45.2109C569.363 46.4414 569.031 48.3164 568.934 49.3516C568.816 50.4063 568.719 52.3594 568.719 53.707C568.719 55.0547 568.855 57.1836 569.012 58.4336C569.187 59.7031 569.539 61.6563 569.832 62.7891C570.105 63.9219 570.613 65.6406 570.965 66.5977C571.316 67.5547 571.941 69.0977 572.371 70.0156C572.801 70.9336 573.66 72.5156 574.285 73.5313C574.91 74.5469 575.418 75.5234 575.398 75.6797C575.398 75.8359 574.559 79.0391 573.523 82.8086C572.488 86.5586 571.668 89.6641 571.707 89.6836C571.727 89.7227 575.008 88.9023 578.973 87.8672L586.199 85.9727C587.859 86.9492 589.305 87.6914 590.496 88.2773C591.687 88.8438 593.445 89.5859 594.402 89.9375C595.359 90.2695 597 90.7578 598.016 91.0117C599.031 91.2656 600.789 91.6172 601.922 91.7734C603.133 91.9688 605.32 92.0859 607.293 92.0859C609.266 92.0859 611.453 91.9688 612.664 91.7734C613.797 91.6172 615.555 91.2656 616.57 91.0117C617.586 90.7578 619.227 90.2695 620.184 89.9375C621.141 89.6055 622.996 88.8047 624.285 88.1797C625.574 87.5547 627.508 86.4414 628.582 85.7383C629.656 85.0156 631.238 83.8438 632.078 83.1211C632.937 82.418 634.422 80.9922 635.398 79.957C636.375 78.9219 637.684 77.3789 638.289 76.5391C638.895 75.6797 639.93 74.1172 640.574 73.043C641.238 71.9688 642.215 70.0352 642.762 68.7461C643.309 67.457 644.012 65.5234 644.324 64.4492C644.656 63.375 645.086 61.4805 645.301 60.25C645.555 58.8828 645.75 56.7148 645.809 54.6836C645.887 52.2227 645.828 50.6992 645.594 48.8242C645.418 47.418 645.008 45.2305 644.676 43.9414C644.363 42.6523 643.699 40.582 643.211 39.3516C642.723 38.1211 641.902 36.3633 641.414 35.4453C640.926 34.5273 639.93 32.9063 639.207 31.832C638.484 30.7578 637.156 29.0391 636.258 28.0234C635.359 27.0078 633.777 25.4453 632.762 24.5469C631.766 23.6484 629.969 22.2813 628.777 21.4805C627.586 20.6992 625.75 19.6055 624.676 19.0781C623.602 18.5313 622.156 17.8672 621.453 17.5938C620.75 17.3008 619.266 16.8125 618.133 16.4805C617 16.168 615.125 15.7188 613.934 15.5039C612.43 15.2305 610.691 15.0938 608.172 15.0352C606.18 14.9961 603.895 15.0352 603.094 15.1328C602.293 15.2305 600.711 15.5039 599.578 15.7188ZM594.109 32.125L594.754 32.75C595.223 33.2188 595.75 34.2734 596.648 36.4219C597.332 38.082 598.27 40.3477 598.738 41.4414C599.187 42.5547 599.578 43.6289 599.578 43.8438C599.578 44.0586 599.441 44.5273 599.266 44.8594C599.09 45.2109 598.191 46.4609 597.293 47.6523C596.395 48.8438 595.652 49.9766 595.672 50.1914C595.672 50.4063 596.082 51.2461 596.57 52.0469C597.059 52.8477 598.016 54.2148 598.699 55.0742C599.363 55.9336 600.555 57.2813 601.355 58.082C602.156 58.8828 603.465 60.0156 604.266 60.6211C605.066 61.2266 606.082 61.9492 606.512 62.2227C606.941 62.5156 608.133 63.1602 609.148 63.668C610.164 64.1758 611.414 64.7617 611.941 64.957C612.547 65.2109 613.035 65.2891 613.387 65.1719C613.699 65.0938 614.461 64.3906 615.301 63.375C616.063 62.457 617.098 61.168 617.605 60.4844C618.465 59.3516 618.582 59.2734 619.305 59.2734C619.812 59.2734 620.77 59.5859 622.039 60.1523C623.113 60.6406 625.477 61.7734 627.312 62.6914C630.184 64.1367 630.652 64.4297 630.75 64.8789C630.828 65.1914 630.828 66.0313 630.77 66.793C630.711 67.5547 630.477 68.7656 630.223 69.5273C629.852 70.7188 629.637 71.0703 628.504 72.1641C627.801 72.8672 626.687 73.7461 626.043 74.1172C625.398 74.4883 624.305 75.0156 623.602 75.2695C622.469 75.6992 622.02 75.7383 619.5 75.7383C616.961 75.7383 616.473 75.6992 614.91 75.2109C613.953 74.918 611.922 74.1953 610.418 73.6094C608.914 73.0234 606.844 72.0859 605.828 71.5391C604.813 70.9922 603.23 70.0547 602.312 69.4297C601.395 68.8047 599.695 67.457 598.504 66.4414C597.313 65.4453 595.516 63.7461 594.52 62.6719C593.504 61.6172 592 59.8984 591.18 58.8828C590.379 57.8672 589.129 56.1875 588.406 55.1719C587.703 54.1563 586.785 52.75 586.395 52.0469C586.004 51.3438 585.418 50.1523 585.086 49.4102C584.773 48.6484 584.344 47.3398 584.129 46.4805C583.914 45.5234 583.758 44.2344 583.758 43.1602C583.758 42.2031 583.895 40.7773 584.051 40.0352C584.227 39.2734 584.656 38.043 585.008 37.3008C585.379 36.5391 586.238 35.2695 586.922 34.4688C587.684 33.5703 588.504 32.8281 589.031 32.5742C589.773 32.1836 590.223 32.125 594.109 32.125Z" fill="white"/>
</svg>
