<svg width="310" height="51" viewBox="0 0 310 51" fill="none" xmlns="http://www.w3.org/2000/svg">
<g clip-path="url(#clip0_69_23)">
<path fill-rule="evenodd" clip-rule="evenodd" d="M92.9512 0C93.6445 0 93.9961 0.0488281 94.6113 0.244141C95.041 0.390625 95.6953 0.683594 96.0762 0.898438C96.4961 1.14258 97.1211 1.66992 97.6973 2.23633C98.2539 2.79297 98.8887 3.56445 99.2793 4.15039C99.6309 4.6875 100.178 5.6543 100.5 6.29883C100.822 6.94336 101.252 7.91992 101.457 8.47656C101.672 9.02344 101.877 9.47266 101.936 9.47266C101.994 9.47266 102.385 9.41406 102.814 9.33594C103.244 9.25781 104.211 9.14062 104.963 9.08203C105.754 9.01367 106.76 8.98438 107.355 9.02344C107.922 9.0625 108.752 9.15039 109.211 9.22852C109.67 9.30664 110.344 9.47266 110.725 9.59961C111.105 9.72656 111.623 9.95117 111.896 10.0781C112.16 10.2148 112.648 10.5273 112.971 10.7715C113.293 11.0156 113.752 11.4648 113.986 11.7773C114.221 12.0996 114.514 12.5684 114.641 12.8418C114.768 13.1055 114.934 13.5938 115.021 13.916C115.1 14.2383 115.168 14.8828 115.168 15.3516C115.168 15.8301 115.109 16.5332 115.031 16.9238C114.953 17.3047 114.797 17.9102 114.68 18.2617C114.562 18.6133 114.26 19.3359 113.996 19.873C113.742 20.4102 113.176 21.377 112.746 22.0215C112.316 22.666 111.691 23.5254 111.369 23.9258C110.881 24.541 110.803 24.6875 110.9 24.8145C110.969 24.9023 111.271 25.2734 111.584 25.6445C111.896 26.0156 112.434 26.7188 112.775 27.1973C113.117 27.6758 113.625 28.4766 113.908 28.9551C114.191 29.4336 114.592 30.2539 114.807 30.7617C115.021 31.2695 115.295 32.1484 115.422 32.7148C115.549 33.2812 115.656 34.0234 115.656 34.375C115.656 34.7266 115.588 35.3125 115.51 35.6934C115.432 36.0742 115.207 36.709 115.012 37.1094C114.748 37.6465 114.455 38.0371 113.908 38.5742C113.43 39.0527 112.922 39.4336 112.482 39.668C112.102 39.8633 111.447 40.127 111.018 40.2637C110.588 40.4004 109.777 40.5762 109.211 40.6641C108.645 40.752 107.668 40.8203 107.033 40.8203C106.408 40.8203 105.461 40.7715 104.943 40.7227C104.416 40.6641 103.586 40.5469 103.107 40.4688C102.629 40.3906 102.16 40.3027 102.082 40.2734C101.975 40.2441 101.867 40.4102 101.701 40.8887C101.574 41.2598 101.232 42.0801 100.949 42.7246C100.676 43.3691 100.217 44.2969 99.9336 44.7754C99.6602 45.2539 99.1816 45.9961 98.8789 46.4258C98.5762 46.8457 97.9707 47.5293 97.541 47.9395C97.1113 48.3496 96.457 48.877 96.0762 49.0918C95.6953 49.3164 95.041 49.6094 94.6113 49.7559C94.0254 49.9414 93.625 50 93 50C92.375 50 91.9746 49.9414 91.3887 49.7559C90.959 49.6094 90.2949 49.3164 89.9238 49.1016C89.5039 48.8574 88.8789 48.3301 88.3027 47.7637C87.7461 47.207 87.1113 46.4355 86.7207 45.8496C86.3691 45.3125 85.8223 44.3457 85.5 43.7012C85.1777 43.0566 84.7285 42.0215 84.5039 41.4062C84.2695 40.791 84.084 40.2734 84.0742 40.2637C84.0645 40.2637 83.7324 40.3125 83.332 40.3906C82.9316 40.4688 82.0527 40.5957 81.3789 40.6738C80.7051 40.752 79.6309 40.8203 78.9863 40.8203C78.3418 40.8203 77.3555 40.752 76.7891 40.6641C76.2227 40.5762 75.4121 40.4004 74.9824 40.2637C74.5527 40.127 73.8984 39.8633 73.5176 39.668C73.0684 39.4336 72.5801 39.0527 72.1016 38.5742C71.6719 38.1445 71.2324 37.5977 71.0566 37.2559C70.8809 36.9336 70.6562 36.3184 70.5391 35.8887C70.4316 35.459 70.3438 34.834 70.3438 34.4922C70.3438 34.1602 70.4316 33.4375 70.5488 32.8906C70.6563 32.334 70.9004 31.4844 71.0957 31.0059C71.2813 30.5273 71.6328 29.7754 71.8672 29.3457C72.0918 28.916 72.6094 28.0957 73 27.5293C73.3906 26.9531 73.9961 26.1426 74.3477 25.7324C74.6992 25.3125 75.0312 24.9023 75.0996 24.8145C75.1973 24.6875 75.1191 24.541 74.6309 23.9258C74.3086 23.5254 73.6836 22.666 73.2539 22.0215C72.8242 21.377 72.2578 20.4102 71.9941 19.873C71.7402 19.3359 71.4277 18.6133 71.3203 18.2617C71.2031 17.9102 71.0469 17.3047 70.9687 16.9141C70.8906 16.5332 70.832 15.8301 70.832 15.3613C70.832 14.8828 70.9004 14.2383 70.9785 13.916C71.0664 13.5938 71.2324 13.1152 71.3594 12.8418C71.4863 12.5781 71.7695 12.1094 71.9941 11.8164C72.2188 11.5234 72.6289 11.0938 72.9121 10.8691C73.1953 10.6348 73.6641 10.3223 73.957 10.166C74.25 10.0098 74.8457 9.75586 75.2754 9.61914C75.7051 9.47266 76.3887 9.29688 76.7891 9.22852C77.1895 9.16016 78.0098 9.0625 78.5957 9.0332C79.2402 8.98438 80.207 9.00391 81.0371 9.08203C81.7891 9.14062 82.7559 9.25781 83.1855 9.33594C83.6152 9.41406 84.0059 9.47266 84.0645 9.47266C84.123 9.47266 84.3281 9.02344 84.543 8.47656C84.748 7.91992 85.1777 6.94336 85.5 6.29883C85.8223 5.6543 86.3691 4.6875 86.7207 4.15039C87.1113 3.56445 87.7461 2.80273 88.3027 2.23633C88.8203 1.72852 89.5234 1.13281 89.875 0.927734C90.2266 0.712891 90.8613 0.419922 91.291 0.273438C91.9062 0.0683594 92.2578 0.00976562 92.9512 0ZM91.5547 3.35938C91.2812 3.49609 90.7441 3.90625 90.373 4.27734C90.0117 4.63867 89.4355 5.35156 89.0938 5.85938C88.7617 6.36719 88.3027 7.1875 88.0684 7.66602C87.834 8.1543 87.5117 8.89648 87.3457 9.32617C87.1797 9.75586 87.043 10.1367 87.043 10.1855C87.043 10.2246 87.1016 10.2539 87.1602 10.2539C87.2285 10.2539 87.9414 10.4688 88.752 10.7227C89.5527 10.9863 90.8418 11.4551 91.6035 11.7578L93 12.3047C95.1582 11.4551 96.4473 10.9863 97.248 10.7227C98.0488 10.4688 98.7715 10.2539 98.8301 10.2539C98.8984 10.2539 98.957 10.2246 98.957 10.1855C98.957 10.1367 98.8008 9.7168 98.6055 9.22852C98.4199 8.75 98.0781 7.97852 97.8535 7.51953C97.6289 7.06055 97.1895 6.29883 96.8672 5.81055C96.5547 5.33203 95.9785 4.62891 95.5977 4.24805C95.168 3.82812 94.6797 3.45703 94.3184 3.28125C93.9277 3.0957 93.5371 2.98828 93.1465 2.96875C92.8242 2.94922 92.4531 2.96875 92.3164 3.01758C92.1797 3.05664 91.8379 3.21289 91.5547 3.35938ZM76.9941 12.1777C76.584 12.2559 75.9395 12.4707 75.5684 12.6465C75.0996 12.8613 74.748 13.1152 74.4648 13.4375C74.2305 13.7109 73.9766 14.1309 73.8887 14.4043C73.7715 14.7656 73.752 15.1172 73.7812 15.7715C73.8203 16.3867 73.918 16.875 74.1035 17.3828C74.25 17.7832 74.5039 18.3789 74.6602 18.7012C74.8262 19.0234 75.1973 19.6582 75.4902 20.1172C75.793 20.5762 76.3105 21.3086 76.6523 21.7578L77.2773 22.5586C78.6738 21.3086 79.5234 20.5957 80.0605 20.1562C80.5977 19.7266 81.3008 19.1797 81.623 18.9258L82.209 18.4863C82.5508 16.0742 82.8047 14.6973 82.9805 13.8672C83.166 13.0371 83.3027 12.3438 83.293 12.334C83.293 12.3242 82.8438 12.2461 82.3066 12.1582C81.7695 12.0801 80.666 11.9922 79.8652 11.9727C79.0547 11.9434 78.2539 11.9531 78.0684 11.9824C77.8828 12.0117 77.3945 12.0996 76.9941 12.1777ZM103.322 12.207C102.707 12.2949 102.668 12.3145 102.727 12.5293C102.766 12.6465 102.932 13.4473 103.107 14.3066C103.283 15.166 103.508 16.4551 103.605 17.1777L103.791 18.4863C105.002 19.3945 105.705 19.9512 106.135 20.3027C106.564 20.6543 107.326 21.3086 107.814 21.748L108.723 22.5586C109.689 21.3086 110.227 20.5469 110.539 20.0684C110.852 19.5898 111.271 18.8379 111.467 18.4082C111.672 17.9785 111.926 17.2949 112.033 16.8945C112.15 16.4746 112.238 15.8691 112.238 15.4785C112.238 15.1074 112.18 14.5996 112.092 14.3555C112.014 14.1113 111.76 13.7012 111.535 13.4375C111.242 13.1152 110.9 12.8613 110.432 12.6465C110.051 12.4707 109.416 12.2461 109.016 12.1582C108.586 12.0605 107.717 11.9824 106.916 11.9629C106.164 11.9434 105.197 11.9629 104.768 12.0117C104.338 12.0605 103.693 12.1484 103.322 12.207ZM85.6855 15.2344C85.5781 15.7422 85.5098 16.1816 85.5293 16.2109C85.5586 16.2402 86.1348 15.9277 86.8184 15.5176C87.502 15.1074 88.3418 14.6289 88.6836 14.4434C89.0156 14.2578 89.2988 14.082 89.3086 14.043C89.3184 14.0039 88.6348 13.75 87.7949 13.4766C86.9551 13.2129 86.2422 12.9883 86.2227 12.9883C86.2031 12.9883 86.1152 13.2812 86.0273 13.6523C85.9395 14.0137 85.7832 14.7266 85.6855 15.2344ZM96.6914 14.043C96.7012 14.082 97.1797 14.375 97.7559 14.6875C98.3418 15.0098 99.1719 15.4883 99.6211 15.7617C100.061 16.0352 100.441 16.2402 100.461 16.2109C100.49 16.1816 100.422 15.7422 100.314 15.2344C100.217 14.7266 100.07 14.0137 100.002 13.6523C99.9238 13.2812 99.8262 12.9883 99.7773 12.998C99.7285 12.998 99.0156 13.2129 98.1855 13.4863C97.3555 13.75 96.6914 14.0039 96.6914 14.043ZM87.9219 18.2617C87.0918 18.7598 86.0859 19.3848 85.6953 19.6387L84.9922 20.1172C84.875 21.2891 84.8457 23.3008 84.8457 25.3418C84.8555 28.0664 84.8848 29.1113 84.9727 29.2773C85.041 29.3945 85.6465 29.8633 86.3301 30.3027C87.0234 30.752 88.0879 31.416 88.7031 31.7871C89.3184 32.1484 90.5391 32.8125 91.4082 33.2617L93 34.082C95.0801 33.0273 96.3008 32.3633 97.0527 31.9238C97.8047 31.4844 98.9766 30.7617 99.6602 30.3125C100.354 29.8633 100.959 29.3945 101.027 29.2773C101.115 29.1113 101.145 28.0664 101.154 25.3418C101.154 23.3008 101.125 21.2891 101.076 20.8691L101.008 20.1172C99.3086 19.0039 98.1953 18.3203 97.4434 17.8809C96.6914 17.4414 95.3828 16.7285 94.5332 16.2988C93.6934 15.8789 92.9902 15.5273 92.9707 15.5273C92.9609 15.5273 92.1602 15.9375 91.1934 16.4355C90.2266 16.9434 88.752 17.7539 87.9219 18.2617ZM81.2227 22.959C80.9102 23.2422 80.334 23.75 79.9629 24.0918L79.2793 24.7168C80.0312 25.4102 80.6074 25.9277 81.0371 26.3086L81.8184 26.9922C81.8574 25.1855 81.8574 24.1602 81.8379 23.5547L81.7988 22.4512L81.2227 22.959ZM104.152 24.6973C104.133 26.6113 104.152 26.9434 104.27 26.8848C104.348 26.8359 104.914 26.3574 105.539 25.8105C106.164 25.2539 106.672 24.7754 106.672 24.7363C106.672 24.6875 106.359 24.375 105.969 24.0234C105.578 23.6719 105.012 23.1738 104.719 22.9102L104.182 22.4414L104.152 24.6973ZM75.2461 29.3945C74.9824 29.7949 74.582 30.459 74.3574 30.8594C74.1426 31.2598 73.8203 32.0117 73.6445 32.5195C73.3906 33.2812 73.332 33.6035 73.3223 34.3262C73.3125 35.0879 73.3516 35.2734 73.5859 35.7617C73.752 36.1133 74.0156 36.4551 74.2695 36.6602C74.4941 36.8457 74.9238 37.1094 75.2168 37.2461C75.5195 37.3828 76.0664 37.5684 76.4375 37.666C76.9746 37.793 77.5312 37.832 79.0254 37.832C80.4023 37.832 81.2422 37.7832 82.0527 37.6562C82.6777 37.5586 83.1953 37.4707 83.2051 37.4609C83.2246 37.4512 83.0977 36.8164 82.9414 36.0352C82.7852 35.2539 82.5703 34.0039 82.4629 33.252C82.3457 32.5 82.2383 31.6797 82.209 31.416C82.1602 30.9766 82.1211 30.9277 81.3984 30.3809C80.9785 30.0684 80.3145 29.541 79.9043 29.1992C79.5039 28.8672 78.7422 28.2031 78.2246 27.7246C77.6973 27.2461 77.248 26.8555 77.2285 26.8555C77.209 26.8555 76.8672 27.2656 76.4668 27.7539C76.0664 28.252 75.5195 28.9941 75.2461 29.3945ZM106.125 29.1504C105.539 29.6387 104.777 30.2441 104.445 30.498C103.869 30.9277 103.83 30.9863 103.781 31.416C103.752 31.6797 103.635 32.5 103.527 33.252C103.42 34.0039 103.205 35.2539 103.039 36.0352C102.883 36.8164 102.766 37.4512 102.785 37.4609C102.795 37.4707 103.312 37.5586 103.928 37.6562C104.748 37.7832 105.578 37.832 106.955 37.8418C108.645 37.8418 108.957 37.8125 109.689 37.6172C110.148 37.4902 110.725 37.2754 110.959 37.1484C111.203 37.0215 111.574 36.7676 111.779 36.5918C111.984 36.416 112.268 36.0352 112.414 35.7422C112.639 35.2734 112.668 35.0879 112.668 34.3262C112.658 33.6035 112.6 33.2812 112.336 32.5195C112.17 32.0117 111.848 31.2598 111.623 30.8594C111.408 30.459 111.008 29.7949 110.734 29.3945C110.471 28.9941 109.924 28.252 109.533 27.7539C109.133 27.2656 108.781 26.8555 108.742 26.8555C108.703 26.8652 108.342 27.1777 107.932 27.5586C107.531 27.9395 106.721 28.6523 106.125 29.1504ZM85.8809 35.7227C86.0078 36.2695 86.1348 36.7188 86.1543 36.7188C86.1836 36.7188 86.8477 36.5039 87.6191 36.2402C88.4004 35.9766 89.1133 35.7324 89.2109 35.7031C89.2988 35.6738 89.3672 35.6152 89.3477 35.5664C89.3281 35.5273 88.9277 35.293 88.4688 35.0293C88 34.7754 87.1504 34.2773 86.5742 33.9355C85.998 33.584 85.5 33.291 85.4609 33.3008C85.4316 33.3008 85.4609 33.623 85.5293 34.0039C85.5977 34.3945 85.7637 35.166 85.8809 35.7227ZM97.4922 35.0488C97.043 35.293 96.6621 35.5273 96.6426 35.5664C96.623 35.6152 96.6816 35.6641 96.7793 35.7031C96.8672 35.7324 97.5898 35.9766 98.3613 36.2402C99.1426 36.5039 99.8066 36.7188 99.8262 36.7188C99.8555 36.7188 99.9824 36.2695 100.1 35.7227C100.227 35.166 100.383 34.3945 100.441 34.0039C100.51 33.623 100.539 33.3008 100.51 33.3008C100.49 33.3008 99.9824 33.5938 99.3867 33.9453C98.8008 34.3066 97.9512 34.7949 97.4922 35.0488ZM88.6934 38.9746C87.7559 39.2969 86.9746 39.5605 86.9648 39.5801C86.9453 39.5898 87.0918 40.0195 87.2871 40.5273C87.4824 41.0352 87.8633 41.9141 88.1465 42.4805C88.4297 43.0469 88.8984 43.8574 89.1816 44.2871C89.4746 44.7168 89.9922 45.3516 90.3535 45.7031C90.7051 46.0547 91.2812 46.4941 91.623 46.6797C92.1895 46.9824 92.3359 47.0215 92.9902 47.0215C93.6055 47.0117 93.8203 46.9727 94.3086 46.7285C94.6602 46.5527 95.1777 46.1621 95.5879 45.752C95.9688 45.3711 96.5156 44.7168 96.8086 44.2871C97.0918 43.8574 97.5605 43.0469 97.834 42.4805C98.1172 41.9141 98.5078 41.0352 98.7031 40.5273C98.8984 40.0195 99.0156 39.5703 98.9766 39.541C98.9375 39.502 98.5078 39.3555 98.0195 39.209C97.541 39.0625 96.6426 38.7598 96.0176 38.5254C95.4023 38.3008 94.4648 37.9297 93.9473 37.7051C93.4199 37.4805 92.9805 37.3047 92.9707 37.3047C92.9512 37.3145 92.375 37.5586 91.6719 37.8516C90.9785 38.1543 89.6406 38.6523 88.6934 38.9746ZM92.9902 20.5078C93.6055 20.5078 93.9961 20.5664 94.4551 20.7324C94.8066 20.8496 95.3145 21.1035 95.5781 21.2988C95.8516 21.4844 96.2813 21.9043 96.5352 22.2266C96.7891 22.5391 97.0918 23.0469 97.209 23.3398C97.3457 23.7012 97.4336 24.1699 97.4629 24.8047C97.502 25.5664 97.4727 25.8398 97.2969 26.3379C97.1895 26.6797 96.9941 27.1191 96.8672 27.3145C96.7402 27.5195 96.4863 27.8613 96.3008 28.0664C96.125 28.2812 95.7539 28.5938 95.4805 28.7598C95.2168 28.9355 94.709 29.1797 94.3574 29.2969C93.8301 29.4727 93.5762 29.502 92.7949 29.4629C92.1699 29.4336 91.7012 29.3555 91.3301 29.209C91.0371 29.0918 90.5391 28.7891 90.2168 28.5352C89.8945 28.2813 89.4844 27.8516 89.2891 27.5879C89.1035 27.3145 88.8496 26.8164 88.7227 26.4648C88.5664 26.0059 88.5078 25.6055 88.5078 25.0195C88.498 24.4629 88.5664 24.0332 88.7031 23.6035C88.8203 23.2715 89.0059 22.8418 89.1133 22.6562C89.2305 22.4707 89.4844 22.1387 89.6699 21.9336C89.8555 21.7285 90.2168 21.416 90.4512 21.2598C90.6953 21.0938 91.1836 20.8594 91.5254 20.7324C91.9941 20.5664 92.3848 20.5078 92.9902 20.5078Z" fill="white"/>
</g>
<g clip-path="url(#clip1_69_23)">
<path fill-rule="evenodd" clip-rule="evenodd" d="M3.95508 0.0195312L45.9473 0L46.6309 0.244141C47.0117 0.380859 47.5098 0.625 47.7539 0.78125C47.998 0.927734 48.3984 1.26953 48.6426 1.5332C48.8867 1.78711 49.1992 2.19727 49.3359 2.44141C49.4824 2.68555 49.6875 3.16406 50 4.15039V24.8828C50 39.6289 49.9707 45.752 49.8926 46.1133C49.834 46.3965 49.6582 46.8945 49.5117 47.2168C49.3652 47.5391 49.0234 48.0469 48.7598 48.3398C48.4863 48.6328 48.0566 49.0137 47.793 49.1895C47.5293 49.3652 47.0117 49.6191 45.9473 50H4.05273L3.36914 49.7559C2.98828 49.6191 2.4707 49.3652 2.20703 49.1895C1.94336 49.0137 1.51367 48.6328 1.24023 48.3398C0.976562 48.0469 0.654297 47.5781 0.527344 47.3145C0.400391 47.041 0.224609 46.582 0.146484 46.2891C0.0195313 45.8203 0 42.998 0 25C0 7.00195 0.0195313 4.17969 0.146484 3.71094C0.224609 3.41797 0.400391 2.94922 0.527344 2.68555C0.654297 2.41211 0.976562 1.95312 1.24023 1.66016C1.51367 1.36719 1.94336 0.986328 2.20703 0.810547C2.4707 0.634766 2.96875 0.390625 3.32031 0.253906L3.95508 0.0195312ZM35.7422 23.7402C35.3418 23.8477 34.6191 24.1504 34.1309 24.4043C33.5059 24.7266 33.0566 25.0586 32.5684 25.5371C32.1191 25.9863 31.748 26.4648 31.5234 26.9043C31.3281 27.2852 31.0937 27.8809 31.0156 28.2227C30.9277 28.5742 30.8594 29.2383 30.8594 29.6875C30.8594 30.1465 30.9277 30.8105 31.0156 31.1523C31.0937 31.5039 31.2891 32.0508 31.4453 32.373C31.6016 32.6953 31.8945 33.1836 32.1094 33.4473C32.3144 33.7207 32.7734 34.1602 33.1152 34.4336C33.457 34.707 34.0039 35.0879 34.3262 35.2832C34.6484 35.4785 35.6348 35.9473 36.5234 36.3281C37.4121 36.709 38.418 37.1875 38.7695 37.3828C39.1211 37.5781 39.5996 37.9199 39.834 38.1348C40.0684 38.3496 40.3711 38.75 40.4883 39.0137C40.6152 39.2871 40.7227 39.6387 40.7227 39.7949C40.7227 39.9609 40.6348 40.2637 40.5371 40.4785C40.4395 40.6934 40.2148 41.0059 40.0293 41.1719C39.8438 41.3379 39.4336 41.5723 39.1113 41.709C38.584 41.9141 38.3789 41.9434 37.0117 41.9434C35.7324 41.9434 35.3711 41.9141 34.668 41.7188C34.209 41.6016 33.4375 41.3086 32.959 41.0742C32.4805 40.8398 31.8359 40.4688 31.543 40.2441C31.25 40.0195 30.9961 39.8438 30.9766 39.8438C30.9668 39.8438 30.957 40.9473 30.957 42.2852V44.7266C31.9043 45.0977 32.5293 45.293 32.959 45.4004C33.3887 45.5078 34.0723 45.6543 34.4727 45.7227C34.9414 45.8105 35.9375 45.8496 37.207 45.8496C38.8965 45.8398 39.3652 45.8105 40.2344 45.6152C40.8008 45.498 41.5918 45.2734 41.9922 45.1172C42.3926 44.9609 43.0273 44.6191 43.4082 44.3652C43.7891 44.1016 44.2578 43.6914 44.4629 43.457C44.6777 43.2129 44.9707 42.8027 45.127 42.5293C45.2832 42.2656 45.5078 41.7383 45.6348 41.3574C45.8105 40.8008 45.8496 40.4492 45.8496 39.4043C45.8496 38.3789 45.8105 38.0078 45.6348 37.4512C45.5176 37.0801 45.2344 36.4844 45.0098 36.1328C44.7852 35.791 44.375 35.2832 44.1016 35.0195C43.8281 34.7559 43.3594 34.3848 43.0664 34.1797C42.7734 33.9844 42.2266 33.6621 41.8457 33.4766C41.4648 33.291 40.5664 32.8711 39.8438 32.5391C39.1211 32.2168 38.2227 31.7871 37.8613 31.582C37.4902 31.377 37.0117 31.0254 36.7871 30.8105C36.5723 30.5957 36.3086 30.2441 36.2109 30.0293C36.123 29.8145 36.0352 29.5117 36.0352 29.3457C36.0352 29.1895 36.1328 28.8574 36.25 28.623C36.377 28.3887 36.6309 28.0664 36.8164 27.9199C37.002 27.7637 37.4219 27.5488 37.7441 27.4316C38.1348 27.2949 38.6621 27.207 39.3066 27.1777C39.8438 27.1484 40.6543 27.1777 41.1133 27.2461C41.5723 27.3047 42.3438 27.4902 42.8223 27.6563C43.3008 27.8125 43.9746 28.0957 44.3164 28.2812L44.9219 28.6133L44.9316 24.0723C43.8281 23.7402 43.1348 23.5645 42.6758 23.4863C42.1777 23.3887 41.1133 23.3105 40.0391 23.291C38.7598 23.2617 37.9785 23.291 37.3535 23.3984C36.875 23.4766 36.1426 23.6328 35.7422 23.7402ZM11.5234 27.7344H17.7734V45.6055H22.7539V27.7344H29.0039V23.7305H11.5234V27.7344Z" fill="white"/>
</g>
<g clip-path="url(#clip2_69_23)">
<path fill-rule="evenodd" clip-rule="evenodd" d="M290.322 1L295.342 6.00977C298.271 8.92969 300.41 11.1367 300.488 11.332C300.596 11.5762 300.625 12.3379 300.625 18.1875H297.5V13.5L290.518 13.4512L289.98 13.1973C289.688 13.0605 289.268 12.7773 289.062 12.5625C288.848 12.3574 288.564 11.9375 288.174 11.1074L288.125 4.125L264.111 4.17383L263.838 4.37891C263.691 4.49609 263.477 4.71094 263.369 4.84766C263.174 5.11133 263.174 5.26758 263.174 46.8887L263.379 47.1621C263.496 47.3086 263.711 47.5234 263.848 47.6309C264.111 47.8164 264.287 47.8262 275.625 47.875V51H269.668C265.791 51 263.691 50.9707 263.662 50.9023C263.633 50.8438 263.535 50.8047 263.447 50.8047C263.35 50.8047 262.988 50.668 262.637 50.502C262.227 50.3066 261.787 49.9844 261.406 49.5938C261.074 49.2715 260.693 48.7539 260.537 48.4609C260.391 48.168 260.205 47.6406 260.137 47.2891C260.029 46.7617 260 43.041 260 26C260 8.95898 260.029 5.23828 260.137 4.71094C260.205 4.35938 260.391 3.83203 260.537 3.53906C260.693 3.24609 261.074 2.72852 261.406 2.40625C261.787 2.01562 262.227 1.69336 262.637 1.49805C262.988 1.33203 263.35 1.19531 263.447 1.19531C263.535 1.19531 263.633 1.14648 263.662 1.09766C263.701 1.0293 268.252 1 290.322 1ZM303.701 26.0098C304.99 26.0098 305.869 26.0488 306.289 26.1367C306.641 26.2051 307.168 26.3906 307.461 26.5371C307.754 26.6934 308.271 27.0742 308.594 27.4062C308.984 27.7871 309.307 28.2266 309.502 28.6367C309.668 28.9883 309.805 29.3496 309.805 29.4375C309.805 29.5352 309.844 29.6328 309.902 29.6621C309.951 29.6914 310 29.9258 310 30.6875H306.875L306.826 30.3457C306.797 30.1504 306.641 29.8574 306.465 29.6523C306.289 29.4668 305.986 29.2617 305.801 29.2129C305.605 29.1543 304.619 29.125 303.535 29.1445C301.758 29.1738 301.592 29.1934 301.338 29.3789C301.191 29.4961 300.977 29.7109 300.869 29.8477C300.723 30.043 300.674 30.2676 300.674 30.6875C300.674 31.1172 300.723 31.3223 300.879 31.5371C300.996 31.6836 301.211 31.8984 301.348 32.0059C301.592 32.1816 301.826 32.2109 303.926 32.2598C305.312 32.2988 306.396 32.3672 306.631 32.4453C306.846 32.5137 307.246 32.6797 307.51 32.8164C307.783 32.9531 308.271 33.3242 308.594 33.6562C308.984 34.0371 309.307 34.4766 309.502 34.8867C309.668 35.2383 309.805 35.5996 309.805 35.6875C309.805 35.7852 309.844 35.8828 309.902 35.9121C309.961 35.9414 310 36.3809 310 36.9375C310 37.4941 309.961 37.9336 309.902 37.9629C309.844 37.9922 309.805 38.0898 309.805 38.1777C309.805 38.2754 309.668 38.6367 309.502 38.9883C309.307 39.3984 308.984 39.8379 308.594 40.2188C308.271 40.5508 307.754 40.9316 307.461 41.0879C307.168 41.2344 306.641 41.4199 306.289 41.4883C305.879 41.5762 304.98 41.625 303.75 41.625C302.52 41.625 301.621 41.5762 301.211 41.4883C300.859 41.4199 300.332 41.2344 300.039 41.0879C299.746 40.9316 299.238 40.5508 298.906 40.2188C298.574 39.8867 298.193 39.3789 298.037 39.0859C297.891 38.793 297.705 38.2656 297.637 37.9141C297.559 37.5625 297.5 37.2012 297.5 37.1035C297.5 36.957 297.637 36.9375 300.625 36.9375L300.674 37.2793C300.703 37.4746 300.859 37.7676 301.045 37.9727C301.211 38.1582 301.514 38.3633 301.699 38.4121C301.895 38.4707 302.881 38.5 303.965 38.4805C305.703 38.4512 305.908 38.4316 306.152 38.2559C306.289 38.1484 306.504 37.9336 306.621 37.7871C306.777 37.5723 306.826 37.3672 306.826 36.9375C306.826 36.5078 306.777 36.3027 306.621 36.0879C306.504 35.9414 306.289 35.7266 306.152 35.6191C305.908 35.4434 305.674 35.4141 303.574 35.3652C302.188 35.3262 301.104 35.2578 300.869 35.1797C300.654 35.1113 300.264 34.9453 299.99 34.8086C299.727 34.6719 299.229 34.3008 298.896 33.9688C298.506 33.5781 298.193 33.1484 297.998 32.7383C297.842 32.3867 297.646 31.791 297.588 31.4199C297.5 30.8926 297.5 30.5703 297.588 30.0039C297.646 29.6035 297.842 28.9883 297.998 28.6367C298.193 28.2266 298.506 27.7969 298.896 27.4062C299.229 27.0742 299.746 26.6836 300.039 26.5371C300.332 26.3906 300.84 26.2148 301.162 26.1465C301.523 26.0684 302.49 26.0098 303.701 26.0098ZM275.576 26.0098C275.957 26.0098 276.572 26.0684 276.943 26.1465C277.324 26.2246 277.998 26.4785 278.457 26.7031C279.092 27.0156 279.463 27.2891 280.02 27.8555C280.586 28.4121 280.859 28.7832 281.172 29.418C281.396 29.877 281.65 30.5508 281.729 30.9316C281.807 31.3027 281.875 31.7617 281.875 32.25H278.75L278.701 31.8301C278.672 31.6055 278.545 31.1953 278.428 30.9316C278.301 30.6582 278.027 30.2676 277.812 30.0625C277.607 29.8477 277.188 29.5645 276.895 29.4277C276.465 29.2227 276.201 29.1738 275.625 29.1738C275.049 29.1738 274.785 29.2227 274.355 29.4277C274.062 29.5645 273.643 29.8477 273.438 30.0625C273.223 30.2676 272.939 30.6875 272.803 30.9805C272.549 31.5078 272.549 31.5566 272.549 33.8125C272.549 36.0684 272.549 36.1172 272.803 36.6445C272.939 36.9375 273.223 37.3574 273.438 37.5625C273.643 37.7773 274.062 38.0605 274.355 38.1973C274.785 38.4023 275.049 38.4512 275.625 38.4512C276.201 38.4512 276.465 38.4023 276.895 38.1973C277.188 38.0605 277.607 37.7773 277.812 37.5625C278.027 37.3574 278.301 36.957 278.428 36.6934C278.545 36.4199 278.672 36.0195 278.75 35.375H281.875V35.6875C281.875 35.8633 281.807 36.3125 281.729 36.6934C281.65 37.0645 281.396 37.748 281.172 38.207C280.859 38.8418 280.586 39.2129 280.02 39.7695C279.463 40.3359 279.092 40.6094 278.457 40.9219C277.998 41.1465 277.324 41.4004 276.943 41.4785C276.572 41.5566 275.977 41.625 275.625 41.625C275.273 41.625 274.688 41.5566 274.307 41.4785C273.936 41.4004 273.252 41.1465 272.793 40.9219C272.158 40.6094 271.787 40.3359 271.23 39.7695C270.664 39.2129 270.391 38.8418 270.078 38.207C269.854 37.748 269.6 37.0645 269.521 36.6934C269.424 36.2051 269.375 35.3848 269.375 33.8125C269.375 32.2402 269.424 31.4199 269.521 30.9316C269.6 30.5508 269.854 29.877 270.078 29.418C270.391 28.7832 270.664 28.4121 271.23 27.8555C271.787 27.2891 272.158 27.0156 272.793 26.7031C273.252 26.4785 273.906 26.2344 274.258 26.1562C274.609 26.0781 275.205 26.0098 275.576 26.0098ZM289.639 26.0098C290.928 26.0098 291.807 26.0488 292.227 26.1367C292.578 26.2051 293.105 26.3906 293.398 26.5371C293.691 26.6934 294.199 27.0742 294.531 27.4062C294.863 27.7383 295.244 28.2461 295.4 28.5391C295.547 28.832 295.732 29.3594 295.801 29.7109C295.879 30.0625 295.938 30.4238 295.938 30.5117C295.938 30.668 295.801 30.6875 292.812 30.6875L292.764 30.3457C292.734 30.1504 292.578 29.8574 292.402 29.6523C292.227 29.4668 291.924 29.2617 291.738 29.2129C291.543 29.1543 290.557 29.125 289.473 29.1445C287.695 29.1738 287.529 29.1934 287.275 29.3789C287.129 29.4961 286.914 29.7109 286.807 29.8477C286.66 30.043 286.611 30.2676 286.611 30.6875C286.611 31.1172 286.66 31.3223 286.816 31.5371C286.934 31.6836 287.148 31.8984 287.285 32.0059C287.529 32.1816 287.764 32.2109 289.863 32.2598C291.25 32.2988 292.334 32.3672 292.568 32.4453C292.783 32.5137 293.184 32.6797 293.447 32.8164C293.721 32.9531 294.209 33.3242 294.541 33.6562C294.932 34.0469 295.244 34.4766 295.439 34.8867C295.596 35.2383 295.791 35.8242 295.85 36.2051C295.938 36.7324 295.938 37.0547 295.85 37.6211C295.791 38.0215 295.596 38.6367 295.439 38.9883C295.244 39.3984 294.932 39.8281 294.541 40.2188C294.209 40.5508 293.691 40.9316 293.398 41.0879C293.105 41.2344 292.578 41.4199 292.227 41.4883C291.816 41.5762 290.918 41.625 289.688 41.625C288.457 41.625 287.559 41.5762 287.148 41.4883C286.797 41.4199 286.27 41.2344 285.977 41.0879C285.684 40.9316 285.176 40.5508 284.844 40.2188C284.512 39.8867 284.131 39.3789 283.975 39.0859C283.828 38.793 283.643 38.2656 283.574 37.9141C283.496 37.5625 283.438 37.2012 283.438 37.1035C283.438 36.957 283.574 36.9375 286.562 36.9375L286.611 37.2793C286.641 37.4746 286.797 37.7676 286.982 37.9727C287.148 38.1582 287.451 38.3633 287.637 38.4121C287.832 38.4707 288.818 38.5 289.902 38.4805C291.641 38.4512 291.846 38.4316 292.09 38.2559C292.227 38.1484 292.441 37.9336 292.559 37.7871C292.715 37.5723 292.764 37.3672 292.764 36.9375C292.764 36.5078 292.715 36.3027 292.559 36.0879C292.441 35.9414 292.227 35.7266 292.09 35.6191C291.846 35.4434 291.611 35.4141 289.512 35.3652C288.125 35.3262 287.041 35.2578 286.807 35.1797C286.592 35.1113 286.201 34.9453 285.928 34.8086C285.664 34.6719 285.166 34.3008 284.834 33.9688C284.443 33.5781 284.131 33.1484 283.936 32.7383C283.779 32.3867 283.584 31.791 283.525 31.4199C283.438 30.8926 283.438 30.5703 283.525 30.0039C283.584 29.6035 283.779 28.9883 283.936 28.6367C284.131 28.2266 284.443 27.7969 284.834 27.4062C285.166 27.0742 285.684 26.6836 285.977 26.5371C286.27 26.3906 286.777 26.2148 287.1 26.1465C287.461 26.0684 288.428 26.0098 289.639 26.0098Z" fill="white"/>
</g>
<path d="M161.502 0.126953C161.414 0.205078 161.404 0.498047 161.443 1.07422C161.473 1.5332 161.463 2.27539 161.404 2.73438C161.346 3.19336 161.209 3.86719 161.092 4.24805C160.975 4.62891 160.74 5.25391 160.555 5.64453C160.35 6.08398 160.008 6.57227 159.646 6.95312C159.334 7.29492 158.465 8.00781 157.732 8.54492C156.99 9.08203 155.857 9.91211 155.203 10.3906C154.559 10.8789 153.533 11.7578 152.937 12.3438C152.342 12.9395 151.639 13.7598 151.365 14.1602C151.092 14.5605 150.74 15.166 150.564 15.498C150.398 15.8398 150.193 16.3672 150.115 16.6699C150.037 16.9824 149.969 17.5879 149.969 18.0176C149.969 18.4863 150.047 19.1113 150.164 19.5801C150.281 20.0098 150.486 20.625 150.623 20.9473C150.77 21.2695 151.062 21.8359 151.287 22.1973C151.502 22.5684 151.893 23.1543 152.156 23.5156C152.42 23.877 153.289 24.8145 154.09 25.6055C154.881 26.4063 155.652 27.0996 155.799 27.1484C156.004 27.2168 156.102 27.2168 156.199 27.1289C156.268 27.0605 156.326 26.9141 156.326 26.8066C156.316 26.6992 156.072 26.0645 155.77 25.3906C155.467 24.7168 154.979 23.4668 154.695 22.6074C154.412 21.748 154.09 20.5664 153.982 19.9707C153.865 19.375 153.777 18.5449 153.777 18.1152C153.777 17.4609 153.816 17.2461 154.041 16.7969C154.197 16.4941 154.607 15.9668 154.998 15.5762C155.369 15.1953 156.58 14.1406 157.684 13.2227C158.787 12.3047 160.096 11.1426 160.584 10.6348C161.082 10.127 161.687 9.45312 161.932 9.13086C162.176 8.80859 162.547 8.19336 162.752 7.76367C162.967 7.33398 163.201 6.66016 163.289 6.26953C163.377 5.88867 163.445 5.15625 163.445 4.66797C163.445 4.0918 163.367 3.45703 163.24 2.92969C163.133 2.4707 162.918 1.81641 162.771 1.46484C162.625 1.11328 162.381 0.644531 162.244 0.410156C162.088 0.166016 161.902 0 161.795 0C161.697 0 161.561 0.0585937 161.502 0.126953ZM170.525 26.4258C170.418 26.4551 170.135 26.5234 169.891 26.582C169.646 26.6406 169.109 26.8164 168.689 26.9629C168.23 27.1387 167.898 27.3242 167.84 27.4414C167.781 27.5586 167.781 27.7051 167.83 27.8027C167.889 27.9297 168.094 27.998 168.533 28.0566C168.875 28.0957 169.402 28.1738 169.695 28.2324C169.988 28.291 170.555 28.4863 170.936 28.6719C171.473 28.916 171.727 29.1113 171.941 29.4141C172.107 29.6484 172.264 29.9902 172.303 30.1758C172.332 30.3613 172.303 30.7129 172.244 30.957C172.176 31.2012 171.912 31.6992 171.668 32.0703C171.414 32.4414 170.75 33.1836 170.184 33.7305C169.617 34.2773 168.689 35.0586 168.104 35.4785C167.459 35.9473 167.059 36.2988 167.059 36.3965C167.059 36.4941 167.098 36.6309 167.137 36.6992C167.176 36.7773 167.312 36.8359 167.449 36.8359C167.586 36.8359 168.045 36.7383 168.475 36.6211C168.904 36.5039 169.627 36.2598 170.086 36.084C170.545 35.9082 171.248 35.6055 171.648 35.4004C172.049 35.1953 172.684 34.834 173.055 34.5801C173.426 34.3359 173.973 33.8672 174.275 33.5449C174.578 33.2227 174.949 32.7148 175.096 32.4219C175.242 32.1289 175.408 31.6016 175.467 31.25C175.564 30.7227 175.555 30.4883 175.408 29.834C175.32 29.4043 175.105 28.7695 174.939 28.418C174.764 28.0566 174.451 27.6074 174.197 27.3633C173.953 27.1289 173.504 26.8262 173.211 26.6797C172.762 26.4746 172.508 26.4258 171.697 26.4062C171.16 26.3867 170.633 26.3965 170.525 26.4258ZM143.816 41.7578C143.094 41.8262 142.146 41.9531 141.717 42.041C141.287 42.1289 140.711 42.2656 140.447 42.3535C140.174 42.4414 139.764 42.6074 139.52 42.7246C139.275 42.8418 138.963 43.0762 138.807 43.252C138.66 43.418 138.514 43.7207 138.484 43.916C138.445 44.1504 138.484 44.4336 138.572 44.6777C138.66 44.8926 138.895 45.2246 139.1 45.4102C139.305 45.6055 139.715 45.8789 140.008 46.0156C140.301 46.1621 140.965 46.3867 141.473 46.5234C141.98 46.6602 142.791 46.8359 143.279 46.9141C143.758 46.9922 144.812 47.1289 145.623 47.207C146.424 47.2949 148.445 47.4121 150.115 47.4707C151.775 47.5293 154.217 47.5488 155.535 47.5098C156.854 47.4707 158.807 47.3828 159.881 47.3047C160.955 47.2363 162.518 47.0801 163.348 46.9727C164.178 46.8652 165.34 46.6895 165.936 46.582C166.521 46.4746 167.449 46.2695 167.986 46.1328C168.523 45.9961 169.383 45.752 169.891 45.5859C170.398 45.4199 171.15 45.1172 171.551 44.9219C171.951 44.7168 172.43 44.4043 172.605 44.2188C172.811 44.0039 172.947 43.7598 172.986 43.5059C173.016 43.291 173.016 42.998 172.977 42.8418C172.947 42.6953 172.781 42.4219 172.625 42.2363C172.41 41.9824 172.254 41.8945 172.039 41.8945C171.844 41.8945 171.73 41.9499 171.697 42.0605C171.668 42.1582 171.668 42.373 171.707 42.5293C171.756 42.7637 171.727 42.8516 171.541 42.998C171.414 43.0957 170.887 43.3008 170.379 43.457C169.871 43.6133 169.031 43.8281 168.523 43.9355C168.016 44.043 167.068 44.2285 166.424 44.3359C165.779 44.4434 164.285 44.6387 163.104 44.7754C161.922 44.9023 160.027 45.0586 158.904 45.127C157.596 45.2051 155.682 45.2246 153.582 45.1855C151.785 45.1465 149.627 45.0586 148.797 44.9707C147.967 44.8926 146.648 44.7363 145.867 44.6191C145.086 44.5117 144.051 44.3164 143.572 44.1992C143.084 44.0723 142.557 43.9062 142.4 43.8281L142.107 43.6816C142.488 43.4375 143.055 43.2227 143.621 43.0371C144.187 42.8516 145.037 42.6172 145.516 42.5195C146.219 42.373 146.404 42.2949 146.482 42.1191C146.551 41.9629 146.541 41.8555 146.443 41.748C146.346 41.6309 146.15 41.6016 145.721 41.6113C145.398 41.6211 144.539 41.6797 143.816 41.7578ZM174.041 44.9707C173.719 45.2148 172.967 45.6543 172.381 45.9473C171.785 46.2402 170.887 46.6113 170.379 46.7773C169.871 46.9434 169.012 47.1875 168.475 47.3145C167.937 47.4414 167.166 47.5879 166.766 47.6562C166.365 47.7148 165.262 47.832 164.324 47.9102C163.387 47.9883 160.809 48.0762 158.611 48.1152C156.326 48.1445 152.723 48.125 150.213 48.0566C146.687 47.9688 145.789 47.9688 145.691 48.0664C145.623 48.1348 145.574 48.2812 145.594 48.3887C145.613 48.4961 145.73 48.6328 145.867 48.7012C146.004 48.7598 146.922 48.9453 147.918 49.1113C148.914 49.2676 150.32 49.4727 151.043 49.5508C151.766 49.6387 152.889 49.7559 153.533 49.8145C154.178 49.873 156.131 49.9512 157.879 49.9707C159.93 50.0098 161.482 49.9805 162.273 49.9121C162.947 49.8438 164.148 49.7266 164.959 49.6484C165.76 49.5605 166.99 49.4141 167.693 49.3066C168.387 49.1992 169.158 49.0723 169.402 49.0137C169.646 48.9648 170.213 48.8086 170.672 48.6719C171.131 48.5352 171.893 48.2129 172.381 47.9688C172.967 47.666 173.484 47.2949 173.924 46.875C174.305 46.5137 174.695 46.0352 174.832 45.752C174.959 45.4785 175.066 45.1465 175.066 44.9902C175.066 44.8242 174.998 44.6875 174.871 44.6289C174.764 44.5703 174.666 44.5312 174.646 44.5312C174.637 44.5312 174.363 44.7266 174.041 44.9707ZM164.959 10.8691C164.314 11.1523 163.299 11.6406 162.713 11.9531C162.117 12.2754 161.355 12.7051 161.004 12.9199C160.652 13.1445 160.037 13.5547 159.637 13.8477C159.236 14.1406 158.553 14.7461 158.123 15.1855C157.566 15.752 157.225 16.2012 156.951 16.748C156.609 17.4121 156.561 17.6074 156.521 18.3008C156.502 18.7402 156.541 19.4238 156.609 19.8242C156.678 20.2246 156.844 20.8594 156.98 21.2402C157.107 21.6113 157.381 22.1875 157.576 22.5098C157.771 22.832 158.25 23.5156 158.641 24.0234C159.061 24.5605 159.402 25.1172 159.461 25.3418C159.529 25.6348 159.52 25.918 159.412 26.4648C159.334 26.8652 159.148 27.5 159.002 27.8809C158.855 28.2617 158.758 28.6523 158.777 28.7598C158.797 28.8965 158.895 28.9648 159.1 28.9844C159.354 29.0137 159.52 28.8965 160.223 28.2422C160.682 27.8223 161.268 27.168 161.531 26.7969C161.805 26.4258 162.117 25.8887 162.244 25.6055C162.371 25.332 162.518 24.8242 162.586 24.4824C162.664 24.0137 162.664 23.7305 162.566 23.2422C162.508 22.8906 162.371 22.3828 162.264 22.1191C162.166 21.8457 161.766 21.123 161.385 20.5078C160.994 19.8926 160.594 19.1895 160.486 18.9453C160.369 18.6816 160.291 18.3105 160.301 18.0176C160.301 17.7441 160.379 17.334 160.467 17.0898C160.555 16.8457 160.818 16.3867 161.043 16.0645C161.277 15.7422 161.951 15.0195 162.537 14.4531C163.123 13.8867 164.295 12.8711 165.135 12.1777C165.975 11.4941 166.668 10.8691 166.668 10.791C166.668 10.7129 166.6 10.5762 166.521 10.498C166.443 10.4199 166.316 10.3516 166.248 10.3516C166.189 10.3516 165.604 10.5859 164.959 10.8691ZM147.723 27.1582C147.264 27.1973 146.473 27.3047 145.965 27.4023C145.457 27.4902 144.754 27.6562 144.402 27.7734C144.051 27.8906 143.562 28.1055 143.299 28.252C143.045 28.3984 142.752 28.6621 142.645 28.8281C142.527 29.0234 142.449 29.3262 142.449 29.5605C142.449 29.7949 142.508 30.0977 142.586 30.2441C142.664 30.4004 142.85 30.6348 143.006 30.7715C143.152 30.9082 143.436 31.1133 143.621 31.2305C143.807 31.3477 144.266 31.543 144.646 31.6797C145.018 31.8066 145.789 32.0117 146.355 32.1191C146.922 32.2266 147.84 32.373 148.406 32.4414C149.07 32.5195 150.643 32.5684 152.85 32.5684C154.891 32.5684 156.717 32.5098 157.391 32.4414C158.006 32.373 158.934 32.2461 159.441 32.168C159.949 32.0801 160.828 31.9043 161.395 31.7773C161.961 31.6406 162.84 31.4062 163.348 31.2402C163.855 31.0742 164.803 30.6836 165.447 30.3711C166.092 30.0586 166.736 29.6875 166.883 29.5508C167.039 29.4141 167.156 29.2383 167.156 29.1699C167.166 29.1113 167.088 28.9844 167 28.9062C166.883 28.7988 166.736 28.7793 166.434 28.8281C166.219 28.8672 165.574 28.9844 165.008 29.0918C164.441 29.1895 163.367 29.3555 162.615 29.4336C161.863 29.5215 160.018 29.668 158.514 29.7461C156.58 29.8535 154.91 29.8828 152.801 29.8535C151.16 29.8242 149.402 29.7461 148.895 29.6973C148.387 29.6387 147.693 29.5508 147.352 29.4922C147.02 29.4434 146.746 29.3457 146.746 29.2969C146.746 29.2383 147.039 29.0625 147.4 28.8965C147.771 28.7305 148.455 28.4668 148.943 28.3203C149.422 28.1738 149.979 28.0176 150.164 27.9883C150.35 27.9492 150.633 27.8809 150.799 27.832C150.955 27.7832 151.121 27.6758 151.16 27.5977C151.209 27.5098 151.189 27.3535 151.141 27.2461C151.053 27.0605 150.955 27.0508 149.793 27.0605C149.109 27.0703 148.182 27.1094 147.723 27.1582ZM148.064 33.0469C147.684 33.1738 147.205 33.3594 146.99 33.4668C146.775 33.5742 146.453 33.8281 146.277 34.0234C146.111 34.2188 145.955 34.4727 145.955 34.5898C145.945 34.7168 145.955 34.9023 145.965 35.0098C145.975 35.1172 146.082 35.332 146.199 35.498C146.326 35.6543 146.678 35.9277 147 36.1035C147.312 36.2695 147.859 36.5039 148.211 36.6113C148.562 36.7285 149.285 36.9043 149.822 37.0117C150.359 37.1191 151.229 37.2461 151.746 37.3047C152.273 37.3535 153.328 37.4023 154.09 37.4023C154.861 37.4023 156.141 37.334 156.951 37.2656C157.752 37.1875 159.031 37.0312 159.783 36.9141C160.535 36.8066 162.049 36.543 163.152 36.3184C164.256 36.1035 165.262 35.8691 165.398 35.8105C165.561 35.7324 165.643 35.612 165.643 35.4492C165.643 35.2832 165.506 35.1074 165.154 34.8438C164.881 34.6387 164.383 34.2773 164.031 34.0332L163.396 33.6035C161.199 34.0527 159.93 34.2676 159.148 34.375C158.367 34.4824 156.922 34.6191 155.926 34.6777C154.607 34.7461 153.602 34.7461 152.215 34.668C151.17 34.6094 149.998 34.4922 149.627 34.4141C149.246 34.3359 148.865 34.248 148.768 34.2285C148.68 34.1992 148.602 34.1113 148.602 34.0332C148.602 33.9551 148.777 33.7793 148.992 33.6426C149.207 33.5059 149.383 33.3203 149.383 33.2227C149.383 33.1348 149.334 32.998 149.266 32.9297C149.197 32.8613 149.051 32.8125 148.943 32.8223C148.836 32.8223 148.436 32.9297 148.064 33.0469ZM148.992 38.2422C148.699 38.3203 148.289 38.4961 148.084 38.623C147.889 38.7598 147.654 38.9648 147.576 39.082C147.498 39.209 147.4 39.4824 147.361 39.6973C147.322 39.9902 147.352 40.2051 147.508 40.5273C147.645 40.8301 147.869 41.084 148.23 41.3281C148.514 41.5332 149.012 41.7871 149.334 41.9043C149.656 42.0117 150.291 42.1875 150.75 42.2852C151.209 42.3926 151.951 42.5195 152.41 42.5684C152.869 42.627 153.924 42.7148 154.754 42.7637C155.652 42.8125 156.844 42.8125 157.684 42.7637C158.465 42.7148 159.607 42.5879 160.223 42.4805C160.838 42.373 161.736 42.1777 162.225 42.0508C162.703 41.9238 163.494 41.6699 163.982 41.4844C164.744 41.2109 164.861 41.1328 164.891 40.918C164.91 40.7715 164.852 40.6152 164.744 40.5176C164.646 40.4395 164.012 40.0293 163.318 39.6191L162.078 38.8672C160.223 39.1699 159.227 39.3262 158.66 39.4238C157.908 39.5508 157.156 39.5996 155.828 39.5898C154.832 39.5801 153.572 39.5215 153.016 39.4629C152.469 39.4043 151.678 39.2871 151.258 39.1992C150.848 39.1113 150.477 39.0234 150.428 39.0039C150.389 38.9844 150.408 38.8672 150.467 38.7402C150.525 38.623 150.545 38.4277 150.516 38.3008C150.467 38.1152 150.398 38.0859 149.988 38.0957C149.734 38.0957 149.285 38.1641 148.992 38.2422Z" fill="white"/>
<path fill-rule="evenodd" clip-rule="evenodd" d="M207.51 4.67773L209.404 4.73633L209.453 6.64063H211.211L211.26 4.73633H213.115L213.164 10.6445H211.211V8.59375H209.453L209.404 10.5957L207.5 10.6445L207.51 4.67773ZM214.053 4.67773L219.365 4.73633L219.414 6.73828H217.656V10.6445L215.752 10.5957L215.703 6.73828H214.043L214.053 4.67773ZM220.313 4.66797L222.295 4.72656L222.861 5.6543C223.174 6.16211 223.477 6.63086 223.516 6.67969C223.574 6.73828 223.828 6.40625 224.17 5.81055C224.492 5.2832 224.785 4.81445 224.844 4.76562C224.893 4.7168 225.361 4.6875 226.797 4.72656L226.846 10.6348L224.941 10.5859L224.844 7.79297L223.545 9.80469L222.92 8.85742C222.578 8.33008 222.275 7.92969 222.227 7.94922C222.187 7.97852 222.158 8.59375 222.158 10.6348H220.303L220.313 4.66797ZM229.727 4.72656L229.775 8.68164H232.51V10.6348H227.822L227.812 7.71484C227.803 6.11328 227.832 4.77539 227.881 4.73633C227.92 4.69727 228.359 4.67773 229.727 4.72656ZM204.648 13.1738L235.391 13.1641L235.332 13.6328C235.293 13.8867 234.658 20.9082 233.926 29.2383C233.184 37.5586 232.549 44.4043 232.52 44.4434C232.49 44.4824 229.668 45.293 220.059 47.9688L213.809 46.2402C210.371 45.293 207.539 44.4824 207.5 44.4434C207.471 44.4043 206.836 37.5586 206.104 29.2383C205.361 20.9082 204.736 13.8867 204.707 13.6328L204.648 13.1738ZM210.439 19.8926C210.439 20.0879 210.654 22.6953 210.928 25.6738C211.191 28.6523 211.416 31.1035 211.416 31.123C211.416 31.1328 214.404 31.1426 218.057 31.1426H224.697C224.697 31.5625 224.609 32.6953 224.492 33.9258C224.385 35.166 224.277 36.1816 224.277 36.1816C224.268 36.1914 223.311 36.4453 222.158 36.7578L220.059 37.334C216.729 36.4453 215.752 36.1914 215.742 36.1816C215.732 36.1816 215.674 35.6055 215.615 34.9023C215.557 34.209 215.488 33.4961 215.469 33.3203L215.42 32.998C211.768 32.998 211.611 33.0176 211.611 33.1738C211.611 33.2617 211.729 34.6387 211.865 36.2207C212.002 37.8027 212.129 39.1113 212.129 39.1211C212.139 39.1309 213.926 39.6289 216.104 40.2344L220.059 41.3281C226.113 39.6387 227.871 39.1406 227.881 39.1211C227.891 39.1113 228.115 36.5527 228.398 33.4375C228.672 30.3223 228.896 27.6758 228.896 27.5586V27.334C216.396 27.334 214.932 27.3145 214.932 27.2168C214.922 27.1484 214.863 26.4551 214.785 25.6738C214.707 24.8926 214.639 24.0723 214.639 23.8477V23.4277C225.986 23.4277 229.287 23.418 229.287 23.4082C229.287 23.3887 229.355 22.6758 229.434 21.8164C229.512 20.957 229.58 20.0879 229.58 19.8926V19.5215H210.439V19.8926Z" fill="white"/>
<defs>
<clipPath id="clip0_69_23">
<rect width="50" height="50" fill="white" transform="translate(68)"/>
</clipPath>
<clipPath id="clip1_69_23">
<rect width="50" height="50" fill="white"/>
</clipPath>
<clipPath id="clip2_69_23">
<rect width="50" height="50" fill="white" transform="translate(260 1)"/>
</clipPath>
</defs>
</svg>
