<svg width="25" height="25" viewBox="0 0 25 25" fill="none" xmlns="http://www.w3.org/2000/svg">
<path d="M11.2024 0.0965643C10.797 0.142305 10.2402 0.233787 9.95697 0.294775C9.67369 0.355763 9.1804 0.487904 8.85805 0.584468C8.5357 0.686115 8.03264 0.869079 7.73471 0.991055C7.43678 1.11811 6.94348 1.35698 6.63578 1.52978C6.32808 1.6975 5.8641 1.97703 5.61012 2.14474C5.35615 2.31754 4.88239 2.67839 4.56004 2.94775C4.23769 3.21712 3.72974 3.69994 3.4367 4.02013C3.14365 4.34031 2.73339 4.82822 2.52825 5.10775C2.32312 5.38219 2.02519 5.82944 1.86402 6.09372C1.70284 6.358 1.4391 6.85099 1.27793 7.18642C1.11675 7.52185 0.882313 8.07075 0.76021 8.40618C0.638108 8.74161 0.46228 9.34641 0.364598 9.753C0.2718 10.1596 0.154582 10.7288 0.110625 11.0236C0.0666682 11.3184 0.0227113 12.0146 0.00805902 12.5737C-0.0114774 13.3665 0.00317492 13.7325 0.0666682 14.2255C0.110625 14.5761 0.203423 15.1352 0.2718 15.4706C0.340178 15.8061 0.486701 16.3804 0.599035 16.7412C0.716254 17.1021 0.931154 17.6764 1.07279 18.0118C1.21932 18.3472 1.48794 18.886 1.67354 19.2061C1.85913 19.5263 2.11799 19.9482 2.25475 20.1464C2.38662 20.3446 2.65524 20.6953 2.84572 20.9341C3.0362 21.173 3.36832 21.5491 3.58322 21.7727C3.79812 21.9963 4.16443 22.3419 4.3891 22.5402C4.61865 22.7384 4.96054 23.0179 5.14613 23.1551C5.33173 23.2923 5.71757 23.5515 6.00085 23.7294C6.28413 23.9073 6.73347 24.1614 7.00209 24.2936C7.27072 24.4308 7.75424 24.6442 8.07659 24.7713C8.39894 24.8984 8.71641 25 8.78479 25C8.85316 25 8.98015 24.9543 9.06807 24.8984C9.1511 24.8424 9.26343 24.7357 9.30739 24.6595C9.38065 24.5324 9.39042 24.38 9.37576 23.3482C9.37088 22.7079 9.36111 22.1742 9.35623 22.1742C9.35134 22.1691 9.14621 22.1996 8.90689 22.2403C8.63338 22.286 8.27684 22.3013 7.95449 22.286C7.67121 22.2759 7.30979 22.225 7.14861 22.1793C6.98744 22.1386 6.68951 22.0167 6.48926 21.9201C6.21575 21.7829 6.03504 21.6457 5.77618 21.3763C5.47825 21.0561 5.38545 20.9138 5.08264 20.2734C4.89216 19.8668 4.63819 19.4043 4.51608 19.2468C4.39398 19.0842 4.14489 18.8453 3.96418 18.7132C3.78347 18.5759 3.56368 18.393 3.47577 18.3066C3.3732 18.1998 3.31948 18.0982 3.32436 18.027C3.33413 17.9406 3.39274 17.8898 3.53438 17.839C3.69067 17.7882 3.79812 17.7831 4.04721 17.8288C4.22304 17.8593 4.49655 17.9508 4.65772 18.027C4.8189 18.1084 5.08264 18.2964 5.23893 18.4489C5.39522 18.6013 5.63943 18.8961 5.7713 19.1045C5.90805 19.3129 6.11807 19.5975 6.24017 19.7296C6.36716 19.8668 6.56252 20.0447 6.68462 20.121C6.80673 20.2023 7.00209 20.3039 7.12419 20.3497C7.2463 20.3954 7.4905 20.4513 7.6761 20.4767C7.89588 20.5123 8.12543 20.5072 8.37941 20.4716C8.58942 20.4411 8.89712 20.37 9.06318 20.3192C9.28785 20.248 9.38553 20.1921 9.41484 20.1057C9.43926 20.0447 9.49298 19.8465 9.53694 19.6635C9.5809 19.4806 9.69323 19.196 9.79091 19.0283C9.88371 18.8605 10.0156 18.6674 10.0791 18.5963L10.1963 18.4692C9.72742 18.4031 9.32692 18.3269 9.00457 18.2557C8.68222 18.1846 8.23288 18.0575 8.00333 17.9762C7.77378 17.8898 7.45631 17.7526 7.29514 17.6713C7.13396 17.5849 6.87999 17.4324 6.73347 17.3308C6.58694 17.2291 6.2939 16.975 6.079 16.7666C5.86898 16.5582 5.60035 16.2381 5.48802 16.0551C5.3708 15.8721 5.19986 15.5519 5.10218 15.3436C5.00938 15.1352 4.87751 14.7693 4.81401 14.5304C4.74564 14.2915 4.65284 13.8239 4.60888 13.4885C4.54539 13.0311 4.53074 12.6652 4.55027 12.04C4.56981 11.3234 4.59423 11.1354 4.70168 10.7441C4.77494 10.495 4.91658 10.1138 5.01426 9.90547C5.11194 9.69709 5.33173 9.33625 5.49779 9.10246C5.73711 8.78227 5.79572 8.66538 5.76153 8.59423C5.73711 8.54849 5.68338 8.34011 5.63943 8.13682C5.59547 7.93352 5.56128 7.54727 5.56128 7.26265C5.56128 6.98313 5.59547 6.57654 5.63454 6.358C5.67362 6.14454 5.75176 5.82944 5.80549 5.66172C5.88363 5.4076 5.9227 5.3517 6.03504 5.3212C6.11318 5.30087 6.32808 5.31104 6.51368 5.33645C6.69928 5.36186 7.04605 5.45334 7.28048 5.53466C7.51981 5.62106 7.91542 5.79386 8.15962 5.92092C8.40871 6.05306 8.78479 6.2716 8.98992 6.40374C9.33669 6.63245 9.38553 6.64769 9.52717 6.60195C9.61508 6.57146 9.97162 6.49522 10.3233 6.42407C10.6749 6.358 11.3001 6.27668 11.7152 6.24619C12.2818 6.20045 12.6628 6.20045 13.2293 6.24619C13.6445 6.27668 14.2257 6.34784 14.5236 6.39866C14.8215 6.45456 15.183 6.5308 15.3295 6.57146L15.5981 6.64769C16.277 6.20553 16.697 5.96666 16.9657 5.83452C17.2343 5.70238 17.6055 5.54483 17.796 5.48892C17.9864 5.42793 18.2795 5.35678 18.4553 5.33137C18.6311 5.30596 18.8363 5.30087 18.9095 5.3212C19.0316 5.3517 19.0609 5.40252 19.1635 5.73795C19.2221 5.94633 19.3051 6.30209 19.3344 6.52572C19.3735 6.77983 19.3882 7.15593 19.3686 7.51677C19.354 7.87253 19.31 8.21813 19.2514 8.40618L19.1586 8.71112C19.5054 9.15328 19.6861 9.42773 19.7887 9.60561C19.8863 9.78349 20.0329 10.1037 20.111 10.3121C20.1892 10.5204 20.2917 10.8762 20.3357 11.0998C20.3894 11.3743 20.4138 11.7504 20.4138 12.2688C20.4138 12.6855 20.3796 13.27 20.3406 13.5647C20.2966 13.8595 20.2087 14.2814 20.1452 14.505C20.0817 14.7286 19.9791 15.0386 19.9157 15.1911C19.857 15.3436 19.7154 15.6231 19.608 15.8111C19.4956 16.0043 19.31 16.2838 19.1879 16.4413C19.0658 16.5989 18.8021 16.8683 18.5969 17.0411C18.3918 17.2088 18.0255 17.4578 17.7911 17.59C17.5517 17.7221 17.1464 17.9 16.8924 17.9864C16.6384 18.0779 16.1744 18.1998 15.8667 18.2659C15.559 18.332 15.1781 18.398 15.0218 18.4133L14.7434 18.4438C15.0071 18.7589 15.1488 18.9825 15.2269 19.1401C15.3051 19.3027 15.4076 19.5721 15.4565 19.7398C15.5297 20.0041 15.5444 20.3497 15.5688 22.3064C15.5883 23.9734 15.6128 24.5985 15.6567 24.6849C15.6909 24.7459 15.7886 24.8323 15.8667 24.8729C15.9449 24.9136 16.0963 24.9492 16.194 24.9492C16.2965 24.9492 16.5993 24.8679 16.868 24.7662C17.1366 24.6646 17.6836 24.4155 18.089 24.2122C18.4895 24.0039 19.0854 23.6583 19.4077 23.4397C19.7301 23.2161 20.2136 22.8502 20.4822 22.6265C20.7508 22.4029 21.2246 21.9455 21.5323 21.6152C21.8449 21.2797 22.2454 20.8172 22.4212 20.5784C22.597 20.3395 22.9096 19.8719 23.1196 19.5365C23.3248 19.2011 23.608 18.6776 23.7497 18.3676C23.8962 18.0575 24.0916 17.595 24.1892 17.3358C24.2869 17.0817 24.4188 16.6701 24.4872 16.421C24.5555 16.1771 24.6581 15.7705 24.7118 15.5214C24.7656 15.2724 24.8535 14.7439 24.9072 14.3525C24.9707 13.8799 25 13.3564 25 12.7872C25 12.2078 24.9707 11.7097 24.9023 11.2116C24.8486 10.8152 24.7265 10.1596 24.6288 9.753C24.5311 9.34641 24.3553 8.74161 24.2332 8.40618C24.1111 8.07075 23.8913 7.54727 23.7399 7.23724C23.5934 6.92722 23.3541 6.46981 23.2075 6.22078C23.0561 5.96666 22.7582 5.50925 22.5335 5.20431C22.3137 4.89937 21.8937 4.38605 21.6007 4.06587C21.3076 3.74568 20.8583 3.30352 20.6043 3.08498C20.3503 2.86135 19.8668 2.49034 19.5298 2.25656C19.1928 2.02277 18.6653 1.69242 18.3576 1.5247C18.0499 1.35698 17.5566 1.11811 17.2587 0.996137C16.9608 0.869079 16.5017 0.69628 16.233 0.60988C15.9644 0.52348 15.4809 0.396422 15.1585 0.325269C14.8362 0.249034 14.2013 0.147388 13.7421 0.0965643C13.283 0.0406587 12.6921 0 12.4234 0C12.1548 0.00508233 11.6029 0.045741 11.2024 0.0965643Z" fill="white"/>
</svg>
