<svg width="149" height="83" viewBox="0 0 149 83" fill="none" xmlns="http://www.w3.org/2000/svg">
<g clip-path="url(#clip0_73_2)">
<path fill-rule="evenodd" clip-rule="evenodd" d="M76.1827 0.117672C76.4273 0.116986 77.2752 0.670108 81.0821 3.30732C83.6075 5.06858 85.7372 6.56246 85.8126 6.62706C85.9257 6.72858 86.9603 6.75346 91.3146 6.74123C95.7066 6.7289 96.7129 6.74459 96.8637 6.85527C96.9768 6.92902 98.0929 9.20345 102.228 18.0521L107.787 21.925C110.84 24.0552 113.432 25.8903 113.545 26.0103C113.677 26.1488 113.753 26.3338 113.744 26.519C113.735 26.6857 113.244 29.3349 111.566 38.024L113.79 42.7858C115.019 45.4025 116.023 47.6495 116.023 47.7791C116.023 47.9087 115.911 48.159 115.771 48.3353C115.63 48.5209 113.774 50.6463 107.821 57.4494L106.57 63.9152C105.717 68.3339 105.271 70.4368 105.168 70.5482C105.084 70.6502 104.83 70.7806 104.605 70.846C104.379 70.9115 101.842 71.5296 98.9752 72.2228C93.7967 73.4687 93.7591 73.4781 93.506 73.7843C93.3654 73.9514 91.678 75.8911 86.2595 82.0724L85.7892 82.0644C85.4789 82.0561 83.2859 81.4697 79.248 80.2959C75.9067 79.3332 73.0925 78.5449 72.989 78.5452C72.8856 78.5454 70.1788 79.1826 66.974 79.9601C63.7692 80.7375 60.9966 81.3656 60.8179 81.3661C60.6392 81.3666 60.4227 81.3024 60.3473 81.2285C60.2718 81.1547 58.743 79.2703 53.6938 72.9795L47.9994 71.3475C44.0463 70.2105 42.239 69.6601 42.0882 69.5216C41.8808 69.3463 41.8138 68.9391 41.0664 64.0065C40.6256 61.0821 40.1656 58.0189 39.8205 55.7238L35.9794 50.948C33.0255 47.2714 32.1288 46.1074 32.1282 45.913C32.1278 45.7648 33.1747 43.4843 36.8213 35.9192L35.9969 30.3665C35.5369 27.3125 35.1627 24.6657 35.1622 24.4898C35.1616 24.2676 35.2363 24.1007 35.3771 23.9707C35.499 23.8685 37.7711 22.5104 40.4283 20.9568C43.0855 19.4032 45.3294 18.073 45.4138 17.9894C45.4983 17.9058 46.714 15.4675 48.1165 12.5564C49.5284 9.61753 50.763 7.17911 51.11 6.85409L64.5586 6.81634L69.9856 3.644C72.9619 1.89507 75.5064 0.388064 75.6378 0.295111C75.7692 0.202159 76.0135 0.118147 76.1827 0.117672ZM68.0945 6.74161C68.1134 6.77859 71.4521 6.79699 75.5149 6.78558C79.5777 6.77418 82.9163 6.73703 82.935 6.69995C82.9536 6.6536 81.4929 5.59299 79.6743 4.32044C77.8556 3.05714 76.3197 1.98748 76.2632 1.95987C76.1972 1.92302 74.3286 2.97446 72.1034 4.28614C69.8688 5.59784 68.0662 6.69539 68.0945 6.74161ZM46.7807 19.1336C40.4411 32.215 38.5993 36.1087 38.5997 36.2383C38.5906 36.3679 39.2234 40.6528 39.9901 45.7705L41.3987 55.0712C51.412 67.5327 54.4131 71.2369 54.5263 71.3477C54.6772 71.5046 56.8515 72.1559 63.9012 74.1729L73.0781 76.7951C88.4443 73.0764 92.9367 71.9713 92.9648 71.9341C93.0023 71.897 95.7771 68.7136 99.152 64.8619C102.517 61.0102 105.489 57.604 105.761 57.2978L106.258 56.7409C109.002 42.5956 109.799 38.4086 109.808 38.3067C109.808 38.2049 107.821 33.8497 105.38 28.6349L100.942 19.1482L85.4412 8.33164L65.0803 8.39806L46.7807 19.1336ZM51.5494 9.27855C51.3251 9.75136 50.4648 11.5314 49.642 13.2465C48.8098 14.9524 48.1554 16.3615 48.1837 16.3707C48.2025 16.3799 51.2165 14.6401 54.8689 12.5004C58.5213 10.3607 61.5164 8.5562 61.535 8.5006C61.5536 8.42648 60.2651 8.40232 56.7572 8.41216L51.9514 8.42566L51.5494 9.27855ZM93.5677 12.0029C96.3664 13.9578 98.7975 15.6546 98.9766 15.7837C99.1557 15.9128 99.3157 15.9864 99.3438 15.9493C99.3719 15.9029 98.5865 14.1646 97.6119 12.0842L95.8426 8.28393C90.1999 8.30903 88.5447 8.34145 88.5167 8.38782C88.498 8.42491 90.769 10.048 93.5677 12.0029ZM36.9503 24.9199C36.9128 24.9571 37.134 26.7155 37.4503 28.8256C37.7666 30.9356 38.0445 32.768 38.073 32.8975C38.1016 33.0363 38.1582 33.0917 38.2051 33.036C38.2426 32.9896 39.5891 30.2361 41.188 26.9171C42.7869 23.6074 44.0959 20.8632 44.0957 20.8262C44.105 20.7799 44.0673 20.7522 44.0297 20.7615C43.9921 20.7617 42.3959 21.6827 40.4899 22.8083C38.5745 23.934 36.9878 24.8828 36.9503 24.9199ZM107.043 28.2969C108.841 32.1433 110.326 35.287 110.355 35.2869C110.383 35.2869 110.745 33.5082 111.171 31.3313C111.588 29.1544 111.95 27.2462 111.959 27.098C111.977 26.8387 111.769 26.6819 107.925 23.9893C105.691 22.4216 103.835 21.1492 103.788 21.1493C103.741 21.1402 103.722 21.1773 103.741 21.2235C103.76 21.2697 105.246 24.4504 107.043 28.2969ZM37.1218 39.1033C37.0657 39.2331 36.3271 40.772 35.4762 42.5335C34.5973 44.3599 33.9617 45.7689 33.9995 45.8244C34.0467 45.8798 35.2452 47.367 36.6703 49.1314C38.0859 50.8958 39.2655 52.3275 39.2749 52.3182C39.2843 52.2997 38.8717 49.3937 38.3445 45.8585C37.8174 42.3232 37.3481 39.3063 37.3006 39.1491L37.2246 38.8715L37.1218 39.1033ZM109.721 47.5561C109.054 51.0206 108.526 53.9107 108.535 53.9755C108.554 54.0402 109.323 53.2326 110.251 52.1653C111.18 51.1072 112.454 49.6408 113.092 48.9169L114.236 47.5897C111.87 42.5413 111.151 41.0342 111.114 40.9787C111.066 40.9233 111.019 40.9605 110.992 41.0716C110.964 41.1736 110.389 44.0916 109.721 47.5561ZM42.6639 63.5299C43.0662 66.1489 43.392 68.3051 43.4108 68.3143C43.4203 68.3143 45.1898 68.8278 47.3358 69.4421C49.4911 70.0471 51.3642 70.5881 51.5054 70.6433C51.6466 70.6892 51.7595 70.6981 51.7594 70.6611C51.7592 70.6148 49.5979 67.8896 46.9459 64.5826C44.294 61.2848 42.0856 58.5412 42.0384 58.4858C41.9755 58.4243 41.9443 58.4552 41.9446 58.5786C41.9449 58.6805 42.2709 60.9108 42.6639 63.5299ZM95.85 71.2317C95.8877 71.2501 97.6922 70.8284 99.8632 70.3038C102.034 69.7793 103.82 69.3484 103.829 69.3391C103.829 69.3391 104.219 67.3474 104.682 64.9297C105.146 62.512 105.544 60.437 105.563 60.3258C105.581 60.2054 105.562 60.1129 105.534 60.1129C105.506 60.113 103.293 62.6097 100.621 65.6632C97.959 68.7075 95.8029 71.2133 95.85 71.2317ZM58.9054 76.8349C60.1323 78.359 61.1704 79.6245 61.1892 79.6337C61.2175 79.6429 63.1253 79.1932 65.4185 78.6405C67.7211 78.0785 69.6289 77.601 69.6477 77.5824C69.6758 77.5638 69.4875 77.481 69.2239 77.3984C68.9698 77.3251 66.0708 76.4907 62.7766 75.5556C59.4917 74.6205 56.7433 73.832 56.6586 73.8044C56.5551 73.7677 56.5363 73.7862 56.593 73.8972C56.6309 73.9804 57.6691 75.3014 58.9054 76.8349ZM76.4757 77.6929C76.4476 77.7207 76.6453 77.8035 76.9183 77.886C77.1913 77.9686 79.2526 78.5646 81.5021 79.2064C84.834 80.1506 85.6151 80.3429 85.6995 80.2408C85.7557 80.1758 86.8994 78.8672 88.2306 77.3358C89.5711 75.8044 90.7054 74.4773 90.771 74.3845C90.8646 74.2546 90.8457 74.2269 90.6765 74.2367C90.5637 74.2462 87.34 75.0145 83.5055 75.9511C79.6711 76.8877 76.5039 77.665 76.4757 77.6929Z" fill="#E3C1C1"/>
</g>
<path d="M40.0541 36.8076L38.4221 45.8524H48.2931L48.7669 43.2682H42.0414L43.2128 36.8076H40.0541Z" fill="white"/>
<path d="M57.5256 41.6143C57.3413 42.6092 56.499 43.2682 54.7222 43.2682C52.8928 43.2682 52.34 42.6092 52.5243 41.6143L53.3929 36.8076H50.2342L49.3655 41.6143C48.8522 44.4569 50.0631 45.9816 54.2353 45.9816C58.2758 45.9816 60.1711 44.4569 60.6844 41.6143L61.553 36.8076H58.3943L57.5256 41.6143Z" fill="white"/>
<path d="M65.3713 36.8076H62.2126L61.186 42.4929H64.3447L65.3713 36.8076ZM60.5805 45.8524H71.3203C73.0181 45.8524 74.558 44.6895 74.7817 43.3845L74.8344 43.0744C75.1239 41.33 73.9525 40.5677 72.281 40.4385L68.8459 40.1671C68.5564 40.1413 68.3984 40.0637 68.4511 39.7666C68.5037 39.5081 68.688 39.3918 68.9775 39.3918H71.873C72.1626 39.3918 72.3205 39.4952 72.2679 39.7924H75.4266L75.453 39.6632C75.7688 38.1127 74.6501 36.8076 72.9523 36.8076H68.8459C67.1349 36.8076 65.6082 38.1127 65.3581 39.3918L65.3187 39.5986C64.9896 41.4721 66.2005 42.1053 67.872 42.2345L71.3203 42.4929C71.6098 42.5188 71.7678 42.6092 71.7151 42.8676C71.6625 43.1648 71.4782 43.2682 71.1887 43.2682H61.0543L60.5805 45.8524Z" fill="white"/>
<path d="M79.534 45.9817H80.8633C82.2848 45.9817 83.4693 45.6716 84.3511 44.7025L84.3774 45.8525H86.3517L87.0887 41.7694L87.2203 41.02H81.3898L81.1266 42.493H83.7325C83.4298 43.0357 82.9428 43.2682 82.0084 43.2682H80.0342C78.5996 43.2682 78.2705 42.7514 78.5206 41.3301C78.7707 39.9475 79.284 39.3919 80.7186 39.3919H82.6928C83.5351 39.3919 83.9563 39.5857 84.101 40.025H87.3651C87.4177 37.4537 85.7331 36.6785 83.0613 36.6785H81.1924C78.1126 36.6785 76.0068 37.7122 75.3619 41.3301C74.6906 45.0514 76.4543 45.9817 79.534 45.9817Z" fill="white"/>
<path d="M87.93 40.1671L86.9034 45.8524H90.0622L90.6676 42.4929H97.6431L98.0643 40.1671H87.93ZM88.0616 39.3918H98.7224L99.1962 36.8076H88.5354L88.0616 39.3918Z" fill="white"/>
<path d="M102.722 36.8076H99.5632L97.9312 45.8524H101.09L102.722 36.8076Z" fill="white"/>
<path d="M103.393 36.8076L101.761 45.8524H104.92L105.907 40.3609L109.79 45.8524H113.607L114.778 39.3918H122.175C123.017 39.3918 123.438 39.5857 123.583 40.025H126.847C126.9 37.4795 125.215 36.8076 122.543 36.8076H112.08L111.067 42.4412L107.079 36.8076H103.393ZM114.844 41.33C114.173 45.0513 115.936 45.9816 119.016 45.9816H120.345C121.767 45.9816 122.951 45.6715 123.833 44.7024L123.859 45.8524H125.834L126.571 41.7693L126.702 41.0199H120.872L120.609 42.4929H123.215C122.912 43.0356 122.425 43.2682 121.49 43.2682H119.516C118.082 43.2682 117.753 42.7513 118.003 41.33C118.095 40.839 118.213 40.4643 118.397 40.1671H115.133C115.015 40.516 114.923 40.9036 114.844 41.33Z" fill="white"/>
<path d="M127.388 40.1671L126.361 45.8524H137.022L137.496 43.2682H129.981L130.126 42.4929H137.628L138.049 40.1671H127.388ZM127.52 39.3918H145.432C145.643 39.3918 145.801 39.5727 145.761 39.7795C145.722 39.9862 145.511 40.1671 145.301 40.1671H138.72L137.693 45.8524H140.852L141.405 42.7643H143.142L144.537 45.8524H147.828L146.354 42.5963C147.63 42.3379 148.591 41.6272 148.92 39.7795C149.407 37.066 147.604 36.8076 145.301 36.8076H127.993L127.52 39.3918Z" fill="white"/>
<path d="M5.05672 36.7715L0 41.5287C7.73739 48.8077 10.0525 50.914 10.1287 50.914C10.2048 50.914 10.5704 50.6418 10.9359 50.2979L11.5756 49.6961L2.81775 41.457L11.4995 33.2896L10.1287 32L5.05672 36.7715ZM18.1098 32.6591L17.4244 33.3039L26.1822 41.543L17.5005 49.7104L18.8713 51L29 41.4713C21.2169 34.135 18.917 32.0143 18.8713 32.0143C18.8256 32.0143 18.4753 32.3009 18.1098 32.6591Z" fill="white"/>
<defs>
<clipPath id="clip0_73_2">
<rect width="83.8892" height="81.9827" fill="white" transform="translate(32 0.241699) rotate(-0.160837)"/>
</clipPath>
</defs>
</svg>
